<ttFont>
          <CharString index="0">
            26 6 -6 -26 hvcurveto
            -144 vlineto
            -26 -6 -6 -26 vhcurveto
            -65 103 -104 callgsubr
            181 return
          </CharString>
          <CharString index="1">
            -88 callgsubr
            87 73 -59 -100 callgsubr
            return
          </CharString>
          <CharString index="2">
            299 callgsubr
            37 hlineto
            24 415 callsubr
            -65 50 -90 -296 5 callsubr
            108 -90 -96 vlineto
            -24 -5 -5 -23 294 callsubr
            return
          </CharString>
          <CharString index="3">
            -103 callgsubr
            29 68 return
          </CharString>
          <CharString index="4">
            rmoveto
            -77 callsubr
            23 vhcurveto
            57 hlineto
            return
          </CharString>
          <CharString index="5">
            -6 -86 callgsubr
            return
          </CharString>
          <CharString index="6">
            11 11 4 18 24 vvcurveto
            129 vlineto
            13 -3 8 -5 5 vhcurveto
            return
          </CharString>
          <CharString index="7">
            90 -101 callgsubr
          </CharString>
          <CharString index="8">
            90 380 vlineto
            25 8 7 24 -28 callgsubr
            64 27 28 57 hvcurveto
            230 352 callgsubr
          </CharString>
          <CharString index="9">
            vlineto
            -95 callgsubr
            return
          </CharString>
          <CharString index="10">
            -87 callsubr
            101 vlineto
            25 -34 callsubr
            68 70 -68 -87 callsubr
            -45 callgsubr
            return
          </CharString>
          <CharString index="11">
            -7 callsubr
            5 -5 -24 hvcurveto
            -287 -14 callgsubr
            -211 -9 callgsubr
            145 vlineto
            25 -34 callsubr
            36 70 -36 -87 callsubr
            149 vlineto
            33 8 0 47 -2 vhcurveto
            -7 1 rlineto
            return
          </CharString>
          <CharString index="12">
            -61 29 -87 callgsubr
            return
          </CharString>
          <CharString index="13">
            -81 callgsubr
            -89 90 return
          </CharString>
          <CharString index="14">
            -57 callsubr
            -24 hvcurveto
            return
          </CharString>
          <CharString index="15">
            -84 389 callgsubr
            55 222 callgsubr
            -23 hvcurveto
            -103 -38 callsubr
            -39 161 callgsubr
            67 -90 -79 vlineto
            -9 callsubr
            171 callgsubr
            127 vlineto
            57 -27 28 -65 vhcurveto
            -54 422 callsubr
            60 -78 callsubr
            return
          </CharString>
          <CharString index="16">
            rmoveto
            199 callgsubr
            -45 -80 callgsubr
            131 -80 callsubr
            75 hlineto
            return
          </CharString>
          <CharString index="17">
            -65 -27 -27 -58 -85 callsubr
            return
          </CharString>
          <CharString index="18">
            vlineto
            -95 callsubr
            return
          </CharString>
          <CharString index="19">
            hlineto
            332 callgsubr
            return
          </CharString>
          <CharString index="20">
            -42 callgsubr
            25 hvcurveto
            return
          </CharString>
          <CharString index="21">
            85 callsubr
            -58 55 callsubr
            58 -93 callsubr
            -114 102 rmoveto
            -65 62 callgsubr
            65 vhcurveto
            446 callgsubr
            28 31 57 hvcurveto
            450 vlineto
            57 359 callgsubr
          </CharString>
          <CharString index="22">
            hvcurveto
            -230 -71 callgsubr
            return
          </CharString>
          <CharString index="23">
            rmoveto
            -24 -6 -6 -24 vhcurveto
            -55 hlineto
            -24 324 callsubr
            286 17 callsubr
            55 6 callsubr
            -6 -24 hvcurveto
            -111 101 rmoveto
            -64 154 callsubr
            64 vhcurveto
            107 hlineto
            65 28 31 57 hvcurveto
            311 vlineto
            58 359 callgsubr
          </CharString>
          <CharString index="24">
            -20 callsubr
            -312 -56 callsubr
            return
          </CharString>
          <CharString index="25">
            -64 callgsubr
            -308 vlineto
            -23 callsubr
            return
          </CharString>
          <CharString index="26">
            11 -98 callgsubr
          </CharString>
          <CharString index="27">
            -97 callgsubr
            24 vhcurveto
            return
          </CharString>
          <CharString index="28">
            hlineto
            67 -54 callsubr
            return
          </CharString>
          <CharString index="29">
            vlineto
            -57 callgsubr
            return
          </CharString>
          <CharString index="30">
            -16 callgsubr
            205 -97 callgsubr
            return
          </CharString>
          <CharString index="31">
            hlineto
            17 -81 callsubr
          </CharString>
          <CharString index="32">
            -61 31 -28 65 vhcurveto
            -53 callgsubr
          </CharString>
          <CharString index="33">
            -49 callsubr
            155 callgsubr
            return
          </CharString>
          <CharString index="34">
            -26 -8 -8 -26 vhcurveto
            return
          </CharString>
          <CharString index="35">
            -80 callgsubr
            129 27 vlineto
            64 -12 callgsubr
            return
          </CharString>
          <CharString index="36">
            -80 callgsubr
            282 -73 callgsubr
            return
          </CharString>
          <CharString index="37">
            rmoveto
            -68 callsubr
            94 hlineto
            return
          </CharString>
          <CharString index="38">
            94 callsubr
            -156 vlineto
            -39 callsubr
            171 return
          </CharString>
          <CharString index="39">
            -73 callsubr
            -138 -72 callsubr
            return
          </CharString>
          <CharString index="40">
            -47 callgsubr
            415 rmoveto
            -39 vlineto
            -54 callgsubr
            return
          </CharString>
          <CharString index="41">
            rmoveto
            -61 callsubr
            return
          </CharString>
          <CharString index="42">
            5 6 3 8 11 vvcurveto
            154 93 callsubr
            -83 hlineto
            -67 -29 -27 -62 hvcurveto
            -149 vlineto
            -15 3 -10 7 -7 vhcurveto
            -43 -7 -18 -33 -46 vvcurveto
            -128 vlineto
            -57 29 -28 56 vhcurveto
            107 hlineto
            20 12 4 10 8 hvcurveto
            -89 91 229 -91 -48 vlineto
            -27 -10 -9 -27 vhcurveto
            -75 -88 callsubr
            103 -73 callgsubr
            return
          </CharString>
          <CharString index="43">
            -60 callgsubr
            -24 return
          </CharString>
          <CharString index="44">
            11 -72 callgsubr
            return
          </CharString>
          <CharString index="45">
            vlineto
            -3 callsubr
            return
          </CharString>
          <CharString index="46">
            -23 -6 -59 callsubr
            return
          </CharString>
          <CharString index="47">
            -97 callgsubr
            23 vhcurveto
            return
          </CharString>
          <CharString index="48">
            -86 callgsubr
            204 vlineto
            5 -7 18 -38 30 -56 77 -132 rcurveline
            -1 return
          </CharString>
          <CharString index="49">
            -51 callgsubr
            230 vlineto
            62 143 callgsubr
            return
          </CharString>
          <CharString index="50">
            6 callsubr
            -5 return
          </CharString>
          <CharString index="51">
            vlineto
            -58 callgsubr
            return
          </CharString>
          <CharString index="52">
            rmoveto
            15 callsubr
            23 10 -9 -26 hvcurveto
            -272 285 callgsubr
            return
          </CharString>
          <CharString index="53">
            29 -46 callgsubr
            return
          </CharString>
          <CharString index="54">
            24 6 5 return
          </CharString>
          <CharString index="55">
            rmoveto
            -380 vlineto
            58 callgsubr
            -400 -47 callsubr
            -39 90 488 vlineto
            return
          </CharString>
          <CharString index="56">
            -84 callgsubr
            162 hlineto
            return
          </CharString>
          <CharString index="57">
            68 vlineto
            22 callsubr
            endchar
          </CharString>
          <CharString index="58">
            -61 29 -28 46 callsubr
            return
          </CharString>
          <CharString index="59">
            hlineto
            -45 callsubr
            return
          </CharString>
          <CharString index="60">
            vlineto
            -57 -50 callgsubr
            return
          </CharString>
          <CharString index="61">
            -23 -28 callsubr
            return
          </CharString>
          <CharString index="62">
            57 -27 30 -65 279 callgsubr
            24 vhcurveto
            33 -93 callsubr
            return
          </CharString>
          <CharString index="63">
            -15 -31 vvcurveto
            408 callgsubr
            197 70 -174 -62 callgsubr
            return
          </CharString>
          <CharString index="64">
            -556 -8 callgsubr
            return
          </CharString>
          <CharString index="65">
            -64 381 callgsubr
            64 vhcurveto
            74 hlineto
            24 6 -5 -24 hvcurveto
            -64 vlineto
            -24 -6 42 callgsubr
            return
          </CharString>
          <CharString index="66">
            -64 callsubr
            -6 5 25 hvcurveto
            return
          </CharString>
          <CharString index="67">
            57 -27 30 -64 vhcurveto
            -117 -70 89 32 callsubr
            -205 82 callgsubr
            81 -90 -92 vlineto
            -49 callsubr
            29 28 61 hvcurveto
            return
          </CharString>
          <CharString index="68">
            -62 29 -27 67 vhcurveto
            89 329 callgsubr
            return
          </CharString>
          <CharString index="69">
            vlineto
            -6 callgsubr
            return
          </CharString>
          <CharString index="70">
            -15 callgsubr
            71 vlineto
            endchar
          </CharString>
          <CharString index="71">
            51 callgsubr
            -65 -27 -27 -58 hvcurveto
            304 callgsubr
            60 vhcurveto
            return
          </CharString>
          <CharString index="72">
            24 5 5 24 73 callsubr
            return
          </CharString>
          <CharString index="73">
            5 5 24 vhcurveto
            return
          </CharString>
          <CharString index="74">
            182 rmoveto
            -73 callsubr
            return
          </CharString>
          <CharString index="75">
            176 callsubr
            196 70 -498 -70 188 hlineto
            287 callsubr
            -179 386 callsubr
            158 -91 -384 hlineto
            -60 32 -27 69 vhcurveto
            242 73 -221 99 callsubr
            474 524 rmoveto
            -64 31 callsubr
            5 5 23 vhcurveto
            37 hlineto
            24 415 callsubr
            -65 50 -90 -164 207 callsubr
            28 68 -52 138 callsubr
            91 180 callsubr
            108 -90 -96 vlineto
            -24 -6 -5 -22 294 callsubr
            172 -2 rmoveto
            -626 89 556 73 70 vlineto
            endchar
          </CharString>
          <CharString index="76">
            -9 callsubr
            57 73 -30 -76 callgsubr
            return
          </CharString>
          <CharString index="77">
            90 380 126 callsubr
            37 hlineto
            24 6 -5 -25 hvcurveto
            -207 vlineto
            -24 -6 -69 callgsubr
          </CharString>
          <CharString index="78">
            -47 callgsubr
            376 rmoveto
            63 callgsubr
            -90 vlineto
            return
          </CharString>
          <CharString index="79">
            vhcurveto
            -38 -87 callsubr
            return
          </CharString>
          <CharString index="80">
            rmoveto
            7 callsubr
            378 90 vlineto
            return
          </CharString>
          <CharString index="81">
            -24 19 callsubr
            return
          </CharString>
          <CharString index="82">
            -4 callsubr
            -6 7 vhcurveto
            94 hlineto
            return
          </CharString>
          <CharString index="83">
            63 -39 callgsubr
            return
          </CharString>
          <CharString index="84">
            -57 27 -28 return
          </CharString>
          <CharString index="85">
            hlineto
            -17 -11 -3 -7 -8 hvcurveto
            return
          </CharString>
          <CharString index="86">
            174 callgsubr
            -28 51 -5 vhcurveto
            -79 -142 rlineto
            86 hlineto
            63 200 callsubr
            return
          </CharString>
          <CharString index="87">
            hlineto
            -32 callgsubr
            return
          </CharString>
          <CharString index="88">
            182 219 callsubr
            return
          </CharString>
          <CharString index="89">
            vhcurveto
            -65 -70 42 86 callgsubr
            -88 vlineto
            -25 -6 -5 -23 vhcurveto
            -65 -71 callsubr
            return
          </CharString>
          <CharString index="90">
            112 callgsubr
            -68 181 callsubr
            return
          </CharString>
          <CharString index="91">
            -24 -8 -8 -24 45 callsubr
            return
          </CharString>
          <CharString index="92">
            26 104 callgsubr
            return
          </CharString>
          <CharString index="93">
            62 hlineto
            18 11 3 8 8 hvcurveto
            -89 -30 callsubr
          </CharString>
          <CharString index="94">
            rmoveto
            -63 callgsubr
            return
          </CharString>
          <CharString index="95">
            -378 -103 callsubr
            return
          </CharString>
          <CharString index="96">
            -5 -28 hvcurveto
            -117 vlineto
            -23 return
          </CharString>
          <CharString index="97">
            -5 -24 vhcurveto
            return
          </CharString>
          <CharString index="98">
            -23 callsubr
            65 vhcurveto
            return
          </CharString>
          <CharString index="99">
            7 hlineto
            60 17 30 49 hvcurveto
            23 -77 -14 vlineto
            -20 -5 -4 -14 vhcurveto
            -23 -29 38 -45 hhcurveto
            -9 hlineto
            -59 -19 -30 -50 hvcurveto
            -22 78 return
          </CharString>
          <CharString index="100">
            vlineto
            -60 31 -25 57 vhcurveto
            37 66 -18 -9 callgsubr
            112 -78 callsubr
            19 hlineto
            24 return
          </CharString>
          <CharString index="101">
            219 callsubr
            158 26 193 callgsubr
            -465 -378 157 callgsubr
            23 vhcurveto
            72 hlineto
            628 290 rmoveto
            -454 -70 75 hlineto
            436 callsubr
            -88 419 callsubr
            -173 133 -48 callsubr
            -121 318 callgsubr
            -155 25 callsubr
            169 84 -169 vlineto
            -61 31 371 callgsubr
            72 vlineto
            endchar
          </CharString>
          <CharString index="102">
            -5 -10 callsubr
            return
          </CharString>
          <CharString index="103">
            rmoveto
            -73 callsubr
            -139 45 callgsubr
            return
          </CharString>
          <CharString index="104">
            25 6 5 return
          </CharString>
          <CharString index="105">
            613 868 -33 callsubr
            -139 hlineto
            -23 -6 351 callgsubr
            -345 hlineto
            -61 -31 -25 -60 hvcurveto
            -135 -96 callsubr
            679 hlineto
            152 callgsubr
            -1050 -70 78 hlineto
            72 callsubr
            return
          </CharString>
          <CharString index="106">
            rmoveto
            95 132 rlineto
            -93 hlineto
            -53 -81 -52 81 rlineto
            -94 hlineto
            96 -132 rlineto
            return
          </CharString>
          <CharString index="107">
            hlineto
            -90 callsubr
            return
          </CharString>
          <CharString index="108">
            vlineto
            25 8 7 return
          </CharString>
          <CharString index="109">
            248 callsubr
            -251 -104 rmoveto
            -18 47 callgsubr
            115 99 -104 vlineto
            -258 -304 -17 callgsubr
            748 408 rmoveto
            70 -972 70 callsubr
            350 126 callsubr
            67 -215 hlineto
            -61 30 -28 60 vhcurveto
            124 callgsubr
          </CharString>
          <CharString index="110">
            -297 hlineto
            42 callsubr
            return
          </CharString>
          <CharString index="111">
            -24 -5 callsubr
            return
          </CharString>
          <CharString index="112">
            hlineto
            -9 callsubr
            92 127 callsubr
            return
          </CharString>
          <CharString index="113">
            hlineto
            24 6 return
          </CharString>
          <CharString index="114">
            -25 -6 -5 -23 vhcurveto
            -31 -80 callgsubr
            return
          </CharString>
          <CharString index="115">
            30 callgsubr
            -23 vhcurveto
            return
          </CharString>
          <CharString index="116">
            -74 callsubr
            192 86 -192 23 callsubr
          </CharString>
          <CharString index="117">
            -33 -17 -26 callgsubr
            -2 -18 14 -33 hhcurveto
            -104 334 callsubr
            -62 hvcurveto
            -226 315 callsubr
            33 18 15 24 2 hvcurveto
            3 hlineto
            return
          </CharString>
          <CharString index="118">
            hlineto
            -73 callsubr
            -134 -80 callgsubr
            104 343 callgsubr
            178 350 callgsubr
            5 5 24 vhcurveto
            6 86 callgsubr
            -151 -38 callsubr
            -214 hlineto
            11 11 5 17 25 vvcurveto
            125 vlineto
            13 -3 8 -5 5 vhcurveto
            69 70 -402 -70 219 hlineto
            287 callsubr
            -140 99 callgsubr
            99 -104 callgsubr
            185 282 -115 vlineto
            -61 142 callsubr
            return
          </CharString>
          <CharString index="119">
            -24 -5 5 return
          </CharString>
          <CharString index="120">
            rmoveto
            199 callgsubr
            -55 -71 callsubr
            55 18 callgsubr
            156 174 rmoveto
            70 -433 -70 174 -74 -6 vlineto
            313 callgsubr
            return
          </CharString>
          <CharString index="121">
            39 callgsubr
            103 callgsubr
            return
          </CharString>
          <CharString index="122">
            54 callgsubr
            35 hlineto
            return
          </CharString>
          <CharString index="123">
            251 549 rmoveto
            52 -23 25 -55 vhcurveto
            -66 hlineto
            -55 -23 -25 -52 hvcurveto
            -184 vlineto
            -51 23 -26 55 vhcurveto
            66 hlineto
            55 23 26 51 hvcurveto
            361 -104 rmoveto
            51 -23 26 -54 vhcurveto
            -67 hlineto
            -54 -24 -26 -51 hvcurveto
            -184 vlineto
            -51 24 -26 54 vhcurveto
            67 hlineto
            54 23 26 51 hvcurveto
            -435 300 rmoveto
            -23 -4 -5 -22 vhcurveto
            -22 hlineto
            -23 -3 5 23 hvcurveto
            161 vlineto
            22 3 5 23 vhcurveto
            22 hlineto
            22 4 -5 -22 hvcurveto
            361 -450 rmoveto
            -22 -3 -5 -23 vhcurveto
            -21 hlineto
            -23 -4 5 22 hvcurveto
            162 vlineto
            22 4 5 23 vhcurveto
            21 hlineto
            23 3 -5 -22 hvcurveto
            -109 376 rmoveto
            -291 -626 rlineto
            74 hlineto
            292 626 rlineto
            return
          </CharString>
          <CharString index="124">
            151 callsubr
            24 vhcurveto
            return
          </CharString>
          <CharString index="125" raw="1">
            ce1ef769 0a0b  
          </CharString>
          <CharString index="126">
            -6 -10 callsubr
            return
          </CharString>
          <CharString index="127">
            180 callsubr
            125 -90 165 callgsubr
            -6 -5 -22 vhcurveto
            -38 hlineto
            return
          </CharString>
          <CharString index="128">
            rmoveto
            95 196 callgsubr
            -107 210 callsubr
            -58 29 -31 64 vhcurveto
            107 hlineto
            64 29 31 58 hvcurveto
            234 -141 -70 50 -153 vlineto
            -24 -6 207 callgsubr
            6 -5 -24 hvcurveto
            -83 vlineto
            endchar
          </CharString>
          <CharString index="129">
            59 -31 26 -57 vhcurveto
            return
          </CharString>
          <CharString index="130">
            vlineto
            -75 callsubr
          </CharString>
          <CharString index="131">
            -31 15 -16 24 375 callsubr
            -24 -2 -15 -15 -31 vvcurveto
            return
          </CharString>
          <CharString index="132">
            vlineto
            -61 29 -28 67 vhcurveto
            89 -79 callsubr
            return
          </CharString>
          <CharString index="133">
            301 callgsubr
            -30 callgsubr
            return
          </CharString>
          <CharString index="134">
            vlineto
            -61 30 -28 60 vhcurveto
            -14 callsubr
          </CharString>
          <CharString index="135">
            -70 241 -74 -95 vlineto
            -65 381 callgsubr
            65 vhcurveto
            78 309 callgsubr
            -70 55 -90 -198 90 75 98 358 callgsubr
            88 vlineto
            57 -27 28 -65 vhcurveto
            -79 284 callsubr
            36 -60 callsubr
            return
          </CharString>
          <CharString index="136">
            -27 14 callsubr
            return
          </CharString>
          <CharString index="137">
            0 -5 -5 vvcurveto
            return
          </CharString>
          <CharString index="138">
            -27 -30 -57 hvcurveto
            -89 90 77 vlineto
            24 return
          </CharString>
          <CharString index="139">
            hlineto
            100 callgsubr
            return
          </CharString>
          <CharString index="140">
            rmoveto
            -697 44 callsubr
            139 432 callgsubr
            201 vlineto
            13 -3 8 -5 5 vhcurveto
            236 -342 hlineto
            -26 -10 -9 -27 vhcurveto
            -31 hlineto
            292 callsubr
            -57 26 -28 53 -4 vhcurveto
            -112 -160 rlineto
            96 hlineto
            121 176 rlineto
            -124 87 -101 callgsubr
          </CharString>
          <CharString index="141">
            -7 callgsubr
            560 408 rmoveto
            70 -830 366 callsubr
            104 hlineto
            24 20 8 16 13 hvcurveto
            -17 14 23 -7 32 hhcurveto
            124 callgsubr
          </CharString>
          <CharString index="142">
            rmoveto
            -25 85 callgsubr
            25 hvcurveto
            return
          </CharString>
          <CharString index="143">
            vhcurveto
            -37 -88 callsubr
            return
          </CharString>
          <CharString index="144">
            -70 72 -471 hlineto
            -9 callsubr
            123 180 callsubr
            117 -90 -105 vlineto
            -24 -6 -5 -22 vhcurveto
            -70 284 callsubr
            459 129 -176 -14 callgsubr
            -41 -70 69 hlineto
            64 395 callgsubr
            190 64 vlineto
            endchar
          </CharString>
          <CharString index="145">
            180 -13 callsubr
            378 98 vlineto
            return
          </CharString>
          <CharString index="146">
            rmoveto
            -697 -91 callgsubr
            236 -339 hlineto
            -34 callgsubr
            -125 87 -101 callgsubr
          </CharString>
          <CharString index="147">
            49 callsubr
            90 return
          </CharString>
          <CharString index="148">
            hlineto
            199 callgsubr
            return
          </CharString>
          <CharString index="149">
            -23 callsubr
            64 vhcurveto
            92 20 callsubr
            return
          </CharString>
          <CharString index="150">
            rmoveto
            -73 callsubr
            -139 -75 callgsubr
            204 -15 callsubr
            58 vlineto
            13 -3 9 -5 7 vhcurveto
            93 hlineto
            152 callgsubr
            -872 -70 496 hlineto
            37 4 -4 -26 hvcurveto
            -45 15 callgsubr
            -263 -274 hlineto
            7 callsubr
            274 -90 -285 277 callsubr
            84 -215 vlineto
            23 callgsubr
          </CharString>
          <CharString index="151">
            -70 188 hlineto
            287 callsubr
            -179 386 callsubr
            158 -91 -384 hlineto
            -60 32 -27 69 vhcurveto
            153 73 -132 99 callsubr
            return
          </CharString>
          <CharString index="152">
            vhcurveto
            -37 -80 callgsubr
            return
          </CharString>
          <CharString index="153">
            67 232 callgsubr
            return
          </CharString>
          <CharString index="154">
            53 callsubr
            -82 callgsubr
            endchar
          </CharString>
          <CharString index="155">
            176 callsubr
            225 70 -527 44 callsubr
            313 75 rmoveto
            292 callsubr
            -56 26 -29 53 -4 vhcurveto
            -112 -160 rlineto
            96 hlineto
            133 193 rlineto
            38 vlineto
            endchar
          </CharString>
          <CharString index="156">
            -54 callgsubr
            -39 return
          </CharString>
          <CharString index="157">
            314 callsubr
            -64 377 callgsubr
            23 6 -5 -24 hvcurveto
            return
          </CharString>
          <CharString index="158">
            rmoveto
            142 129 70 -483 -70 264 -74 -100 255 callsubr
            194 66 -171 -75 callgsubr
            130 -62 callsubr
            23 vhcurveto
            75 hlineto
            -69 -141 rlineto
            71 hlineto
            69 141 rlineto
            16 -2 4 -7 -21 vvcurveto
            -59 69 70 vlineto
            54 -27 26 -57 vhcurveto
            -151 216 callsubr
          </CharString>
          <CharString index="159">
            -24 -8 -8 -24 vhcurveto
            -37 55 callgsubr
            return
          </CharString>
          <CharString index="160">
            87 callsubr
            -114 90 return
          </CharString>
          <CharString index="161">
            -42 119 524 rmoveto
            -53 callsubr
            24 vhcurveto
            39 -93 callsubr
            -142 15 callgsubr
            -75 -72 75 -93 callsubr
            -150 15 callgsubr
            -39 -88 callsubr
            93 -90 -107 127 callgsubr
            92 hlineto
            132 callgsubr
            172 vlineto
            33 -13 19 -27 6 vhcurveto
            27 6 13 22 34 vvcurveto
            158 vlineto
            57 -29 31 -65 vhcurveto
            -92 145 callsubr
            -108 90 vlineto
            endchar
          </CharString>
          <CharString index="162">
            -9 callgsubr
            422 -78 callsubr
            return
          </CharString>
          <CharString index="163">
            133 50 callsubr
            -121 -289 149 62 70 -395 -70 243 -149 -95 221 callsubr
            -155 vlineto
            -61 29 -28 67 vhcurveto
            85 -79 callsubr
            169 99 vlineto
            -1 -4 30 callsubr
            -155 vlineto
            -61 30 -28 67 vhcurveto
            88 -79 callsubr
            169 99 -169 vlineto
            -61 return
          </CharString>
          <CharString index="164">
            -304 vlineto
            -85 callgsubr
            return
          </CharString>
          <CharString index="165">
            180 80 callsubr
            return
          </CharString>
          <CharString index="166">
            389 callgsubr
            87 73 -59 -100 callgsubr
            -197 90 197 17 callsubr
            60 -412 90 556 67 hlineto
            endchar
          </CharString>
          <CharString index="167">
            -87 callsubr
            109 -78 callsubr
            61 71 -61 hlineto
            -24 -5 421 callgsubr
            return
          </CharString>
          <CharString index="168">
            rmoveto
            144 109 70 -446 431 callgsubr
            -308 vlineto
            -57 25 -28 59 -4 361 callsubr
            142 rlineto
            57 4 24 28 56 vvcurveto
            197 callsubr
          </CharString>
          <CharString index="169">
            482 rmoveto
            -53 -4 -27 -25 -56 vvcurveto
            -132 -7 callsubr
            6 -5 -24 hvcurveto
            -287 15 callgsubr
            -211 284 callsubr
            145 -62 callsubr
            23 vhcurveto
            36 70 387 callgsubr
            149 vlineto
            33 8 0 47 -2 vhcurveto
            -7 1 rlineto
            146 hlineto
            228 hmoveto
            70 return
          </CharString>
          <CharString index="170">
            rlineto
            86 hlineto
            63 124 62 -124 rlineto
            86 hlineto
            return
          </CharString>
          <CharString index="171">
            -77 callgsubr
            endchar
          </CharString>
          <CharString index="172">
            -553 69 callsubr
          </CharString>
          <CharString index="173">
            rmoveto
            -439 vlineto
            -128 439 rlineto
            -95 -626 83 452 hlineto
            132 -452 rlineto
            91 626 hlineto
            return
          </CharString>
          <CharString index="174">
            rmoveto
            16 callgsubr
            return
          </CharString>
          <CharString index="175">
            -19 158 327 rmoveto
            -24 -6 6 23 hvcurveto
            168 -80 callsubr
            53 32 callsubr
            -197 vlineto
            -109 299 rmoveto
            190 callgsubr
            -193 424 callgsubr
            109 -154 hlineto
            4 callsubr
            -51 hlineto
            -25 -5 5 24 hvcurveto
            93 -90 -107 212 callgsubr
            103 hlineto
            132 callgsubr
            450 vlineto
            57 -29 31 -65 vhcurveto
            endchar
          </CharString>
          <CharString index="176">
            -74 callgsubr
            endchar
          </CharString>
          <CharString index="177">
            -70 66 93 callgsubr
            return
          </CharString>
          <CharString index="178">
            -15 250 317 callsubr
            -53 -88 callsubr
            186 83 vlineto
            24 6 -6 -23 hvcurveto
            -113 101 rmoveto
            164 402 callgsubr
            -94 89 108 196 callgsubr
            -103 hlineto
            -65 62 callgsubr
            65 vhcurveto
            106 hlineto
            132 callsubr
            183 418 callgsubr
          </CharString>
          <CharString index="179">
            79 callsubr
            -171 vlineto
            -61 142 callsubr
            return
          </CharString>
          <CharString index="180">
            vhcurveto
            36 68 -60 -20 callsubr
            return
          </CharString>
          <CharString index="181">
            171 callsubr
            -450 vlineto
            return
          </CharString>
          <CharString index="182">
            -70 267 -74 -103 vlineto
            -65 -27 -27 -58 hvcurveto
            -68 vlineto
            -31 14 -15 25 -3 vhcurveto
            -2 vlineto
            -48 callgsubr
            return
          </CharString>
          <CharString index="183">
            79 callgsubr
            381 406 rmoveto
            -597 -70 246 -74 -92 hlineto
            89 callgsubr
            99 -314 95 callgsubr
          </CharString>
          <CharString index="184">
            347 callgsubr
            -53 -75 callgsubr
            204 -62 callsubr
            23 vhcurveto
            38 70 -219 -70 73 hlineto
            -7 -6 -4 -10 -16 211 callgsubr
            74 hlineto
            return
          </CharString>
          <CharString index="185">
            rmoveto
            -16 callgsubr
            152 -60 callsubr
            57 hlineto
            return
          </CharString>
          <CharString index="186">
            -4 36 callgsubr
            return
          </CharString>
          <CharString index="187">
            rmoveto
            -102 callgsubr
            return
          </CharString>
          <CharString index="188">
            -23 -6 4 23 hvcurveto
            22 vlineto
            23 6 4 23 vhcurveto
            63 return
          </CharString>
          <CharString index="189">
            -70 219 hlineto
            -107 callsubr
            280 -193 -56 callsubr
            return
          </CharString>
          <CharString index="190">
            161 106 callgsubr
          </CharString>
          <CharString index="191">
            90 callgsubr
            -57 hlineto
            -65 -27 -27 -58 hvcurveto
            return
          </CharString>
          <CharString index="192">
            rmoveto
            -26 callsubr
            return
          </CharString>
          <CharString index="193">
            7 callsubr
            304 return
          </CharString>
          <CharString index="194">
            -105 98 callgsubr
            return
          </CharString>
          <CharString index="195">
            rmoveto
            144 69 70 -406 431 callgsubr
            -308 vlineto
            -53 22 -28 49 -7 193 callsubr
            -80 144 rlineto
            42 9 19 28 49 vvcurveto
            114 -90 -103 vlineto
            -25 -6 -5 -24 vhcurveto
            -30 -71 callsubr
            endchar
          </CharString>
          <CharString index="196">
            -90 hlineto
            22 -54 25 -56 14 -40 22 -40 rlinecurve
            -4 hlineto
            -26 43 -29 38 -55 61 -42 48 rcurveline
            return
          </CharString>
          <CharString index="197">
            74 hlineto
            67 30 35 callgsubr
          </CharString>
          <CharString index="198">
            -103 callsubr
            335 214 rmoveto
            return
          </CharString>
          <CharString index="199">
            rmoveto
            22 4 7 438 callsubr
            23 5 -7 -22 hvcurveto
            -146 vlineto
            -22 -5 -7 -23 vhcurveto
            -24 hlineto
            -24 -4 7 22 hvcurveto
            return
          </CharString>
          <CharString index="200">
            vlineto
            62 -29 27 -67 vhcurveto
            return
          </CharString>
          <CharString index="201">
            -65 191 callgsubr
            return
          </CharString>
          <CharString index="202">
            -61 32 -28 65 vhcurveto
            5 callgsubr
          </CharString>
          <CharString index="203">
            4 callsubr
            -42 283 callgsubr
            -91 -92 127 callgsubr
            return
          </CharString>
          <CharString index="204">
            rmoveto
            106 -134 rlineto
            95 hlineto
            -106 134 rlineto
            return
          </CharString>
          <CharString index="205">
            284 callgsubr
            94 hlineto
            return
          </CharString>
          <CharString index="206">
            hlineto
            -26 -5 5 26 hvcurveto
            return
          </CharString>
          <CharString index="207">
            vlineto
            -31 14 -15 25 -3 vhcurveto
            -2 vlineto
            -48 callgsubr
            endchar
          </CharString>
          <CharString index="208">
            hlineto
            73 callgsubr
            -157 349 callsubr
            -105 hlineto
            -64 -28 14 callsubr
            129 hlineto
            22 14 6 15 6 hvcurveto
            -15 15 24 -6 33 hhcurveto
            78 421 callsubr
            return
          </CharString>
          <CharString index="209">
            -70 72 26 callsubr
            return
          </CharString>
          <CharString index="210">
            26 -20 626 rmoveto
            -70 463 70 vlineto
            -399 -144 rmoveto
            177 callgsubr
            129 70 -219 -264 vlineto
            400 callsubr
            vlineto
            309 -235 rmoveto
            -286 -299 rlineto
            102 hlineto
            184 198 rlineto
            return
          </CharString>
          <CharString index="211">
            199 callgsubr
            -82 -80 callgsubr
            119 -62 callsubr
            23 vhcurveto
            return
          </CharString>
          <CharString index="212">
            -13 callsubr
            350 98 vlineto
            229 hmoveto
            70 -484 232 callsubr
            107 70 -102 -1 callgsubr
          </CharString>
          <CharString index="213">
            -69 115 524 rmoveto
            -53 callsubr
            24 vhcurveto
            32 hlineto
            25 5 -5 -24 hvcurveto
            -46 vlineto
            -47 -6 -31 -22 -42 vhcurveto
            -153 -288 rlineto
            -70 276 73 -174 vlineto
            135 265 rlineto
            25 48 10 36 53 vvcurveto
            63 vlineto
            57 -30 31 -64 vhcurveto
            -86 145 callsubr
            -116 90 vlineto
            endchar
          </CharString>
          <CharString index="214">
            vlineto
            -50 6 -25 -36 callsubr
            116 hlineto
            return
          </CharString>
          <CharString index="215">
            213 callgsubr
            4 hlineto
            330 callgsubr
            return
          </CharString>
          <CharString index="216">
            -24 -5 -86 callgsubr
            90 vlineto
            25 -34 callsubr
            68 70 -68 -87 callsubr
            106 -78 callsubr
            9 -93 callsubr
            -43 60 58 vlineto
            57 143 callgsubr
            -39 334 callsubr
            -57 hvcurveto
            -137 vlineto
            -30 431 callsubr
            -30 vvcurveto
            return
          </CharString>
          <CharString index="217">
            rmoveto
            -47 vlineto
            -24 -5 130 callsubr
            -80 111 callgsubr
            vlineto
            endchar
          </CharString>
          <CharString index="218">
            -79 -141 149 callsubr
            return
          </CharString>
          <CharString index="219">
            -9 callgsubr
            164 return
          </CharString>
          <CharString index="220">
            hlineto
            298 callgsubr
            84 -412 -100 callsubr
          </CharString>
          <CharString index="221">
            hlineto
            27 5 188 callsubr
            return
          </CharString>
          <CharString index="222">
            91 162 callsubr
          </CharString>
          <CharString index="223">
            102 callsubr
            105 hlineto
            26 18 7 15 14 hvcurveto
            -15 16 22 -7 35 hhcurveto
            return
          </CharString>
          <CharString index="224">
            hlineto
            -31 -15 -15 -24 -2 hvcurveto
            -3 hlineto
            24 -2 -16 15 -31 hhcurveto
            -86 hlineto
            -60 -30 -28 -61 hvcurveto
            -251 389 callgsubr
            87 73 -59 -76 callgsubr
            224 -62 callsubr
            23 vhcurveto
            32 hlineto
            24 5 -6 -24 hvcurveto
            -164 90 164 17 callsubr
            return
          </CharString>
          <CharString index="225">
            -61 29 -28 67 vhcurveto
            90 callsubr
          </CharString>
          <CharString index="226">
            66 70 -581 -70 424 -74 -84 vlineto
            -82 callsubr
            65 vhcurveto
            78 73 -51 -100 callgsubr
            return
          </CharString>
          <CharString index="227">
            347 callsubr
            11 callgsubr
            -30 vvcurveto
            -131 vlineto
            -58 335 callgsubr
            return
          </CharString>
          <CharString index="228">
            hlineto
            170 callgsubr
            return
          </CharString>
          <CharString index="229">
            -24 -5 -86 callgsubr
            378 98 return
          </CharString>
          <CharString index="230">
            -230 302 callsubr
            67 3 callsubr
            -24 -5 5 24 hvcurveto
            181 return
          </CharString>
          <CharString index="231">
            160 callgsubr
            -6 5 23 hvcurveto
            282 -80 callsubr
            92 109 callgsubr
          </CharString>
          <CharString index="232">
            10 callsubr
            -24 2 17 -15 33 hhcurveto
            103 hlineto
            59 155 callgsubr
            226 vlineto
            62 -30 27 -59 vhcurveto
            return
          </CharString>
          <CharString index="233">
            1 callsubr
            24 vhcurveto
            return
          </CharString>
          <CharString index="234">
            hlineto
            64 -51 callgsubr
            return
          </CharString>
          <CharString index="235">
            hlineto
            136 callsubr
            return
          </CharString>
          <CharString index="236">
            258 callgsubr
            -7 7 vhcurveto
            94 hlineto
            return
          </CharString>
          <CharString index="237">
            -6 -25 vhcurveto
            -88 259 callgsubr
            47 return
          </CharString>
          <CharString index="238" raw="1">
            91f7791d 85860b  
          </CharString>
          <CharString index="239">
            64 33 callgsubr
            return
          </CharString>
          <CharString index="240">
            -70 187 hlineto
            41 264 callsubr
            -105 -38 callsubr
            -77 -71 77 86 callgsubr
            -192 -38 callsubr
            -40 161 callgsubr
            113 -90 -125 vlineto
            -9 callsubr
            93 180 callsubr
            return
          </CharString>
          <CharString index="241">
            112 callsubr
            -78 callsubr
            return
          </CharString>
          <CharString index="242">
            hlineto
            102 callgsubr
            return
          </CharString>
          <CharString index="243">
            27 5 5 27 vhcurveto
            35 70 -49 hlineto
            -59 -29 -28 -54 -25 4 -41 7 -32 hvcurveto
            -2 hlineto
            -10 28 -14 30 -23 32 -41 58 rcurveline
            return
          </CharString>
          <CharString index="244">
            -70 597 -124 -451 hlineto
            94 callsubr
            -180 -79 callgsubr
            195 150 callsubr
            -180 186 callgsubr
            195 return
          </CharString>
          <CharString index="245">
            198 callgsubr
            -40 vlineto
            -9 callsubr
            return
          </CharString>
          <CharString index="246">
            36 callsubr
            181 275 182 callsubr
          </CharString>
          <CharString index="247">
            vhcurveto
            -31 134 callsubr
            return
          </CharString>
          <CharString index="248">
            -83 callgsubr
            103 -90 return
          </CharString>
          <CharString index="249">
            31 -28 65 vhcurveto
            return
          </CharString>
          <CharString index="250">
            -36 callsubr
            114 hlineto
            14 10 2 5 8 hvcurveto
            0 vlineto
            -9 callsubr
            87 73 -59 422 callsubr
            return
          </CharString>
          <CharString index="251">
            -174 -304 hlineto
            73 callgsubr
            return
          </CharString>
          <CharString index="252">
            hlineto
            190 callgsubr
            return
          </CharString>
          <CharString index="253">
            hlineto
            27 8 8 28 vhcurveto
            31 70 -44 hlineto
            -48 -23 -26 -37 -35 8 -45 1 -3 hvcurveto
            -4 hlineto
            -4 22 -9 35 -10 33 -13 41 rcurveline
            -90 hlineto
            35 -62 29 -52 21 -32 34 -44 rlinecurve
            -5 hlineto
            -33 44 -30 34 -61 64 -47 48 rcurveline
            return
          </CharString>
          <CharString index="254">
            57 -28 30 -64 vhcurveto
            -89 hlineto
            -65 377 callgsubr
            24 5 -5 -24 hvcurveto
            return
          </CharString>
          <CharString index="255">
            rmoveto
            -101 -94 101 hlineto
            -189 94 rmoveto
            -102 -94 102 hlineto
            return
          </CharString>
          <CharString index="256">
            63 callsubr
            -78 return
          </CharString>
          <CharString index="257">
            87 vlineto
            195 callgsubr
            return
          </CharString>
          <CharString index="258">
            vlineto
            24 5 6 return
          </CharString>
          <CharString index="259">
            vlineto
            -107 callsubr
            return
          </CharString>
          <CharString index="260">
            27 9 8 27 vhcurveto
            31 70 -43 hlineto
            -49 -24 -26 -37 -31 9 -56 1 -13 hvcurveto
            -3 hlineto
            -4 22 -10 35 -10 33 -12 41 rcurveline
            -91 hlineto
            35 -62 29 -52 22 -32 33 -44 rlinecurve
            -4 hlineto
            -34 44 -29 34 -62 64 -47 48 rcurveline
            return
          </CharString>
          <CharString index="261">
            -28 74 callgsubr
            28 -31 return
          </CharString>
          <CharString index="262">
            hlineto
            67 29 366 callgsubr
            32 235 callsubr
            return
          </CharString>
          <CharString index="263">
            -85 callsubr
            85 return
          </CharString>
          <CharString index="264">
            -376 hlineto
            -16 callsubr
            return
          </CharString>
          <CharString index="265">
            43 -9 57 0 vhcurveto
            0 19 -43 28 -40 vhcurveto
            return
          </CharString>
          <CharString index="266">
            238 callsubr
            -24 vhcurveto
            return
          </CharString>
          <CharString index="267">
            40 3 -11 callsubr
            return
          </CharString>
          <CharString index="268">
            rmoveto
            -25 -6 -5 -23 vhcurveto
            -45 -80 callgsubr
            155 -60 callsubr
            75 hlineto
            -367 -184 rmoveto
            -16 callgsubr
            155 -60 callsubr
            57 hlineto
            return
          </CharString>
          <CharString index="269">
            556 71 vlineto
            endchar
          </CharString>
          <CharString index="270">
            -89 6 -39 0 vhcurveto
            0 -25 50 -27 46 vhcurveto
            -69 121 rlineto
            75 68 -104 hlineto
            -65 -27 -27 -58 hvcurveto
            -230 192 callsubr
          </CharString>
          <CharString index="271">
            304 93 callsubr
            -7 74 hlineto
            endchar
          </CharString>
          <CharString index="272">
            -89 6 -39 -36 callsubr
            114 hlineto
            14 10 2 5 8 hvcurveto
            0 vlineto
            -9 callsubr
            return
          </CharString>
          <CharString index="273">
            vhcurveto
            -39 161 callgsubr
            67 -90 -79 vlineto
            -9 callsubr
            93 127 callsubr
            127 vlineto
            57 -27 28 -64 vhcurveto
            -55 -76 callgsubr
            60 375 callgsubr
          </CharString>
          <CharString index="274">
            -165 -242 rlineto
            102 hlineto
            135 198 rlineto
            return
          </CharString>
          <CharString index="275">
            -187 60 626 rmoveto
            -626 90 626 vlineto
            return
          </CharString>
          <CharString index="276">
            180 -13 callsubr
            177 270 callsubr
            return
          </CharString>
          <CharString index="277">
            hlineto
            54 callgsubr
            return
          </CharString>
          <CharString index="278">
            -29 -31 -57 hvcurveto
            return
          </CharString>
          <CharString index="279">
            vlineto
            118 callsubr
          </CharString>
          <CharString index="280">
            -3 callgsubr
            373 callsubr
            return
          </CharString>
          <CharString index="281">
            -20 callsubr
            -125 107 callsubr
            27 return
          </CharString>
          <CharString index="282">
            195 callgsubr
            -99 callgsubr
            return
          </CharString>
          <CharString index="283">
            rmoveto
            61 hlineto
            -24 callsubr
            return
          </CharString>
          <CharString index="284">
            432 rmoveto
            -106 124 106 hlineto
            -196 return
          </CharString>
          <CharString index="285">
            15 5 8 12 vhcurveto
            24 30 -38 47 hhcurveto
            return
          </CharString>
          <CharString index="286">
            264 callgsubr
            vlineto
            348 callgsubr
            return
          </CharString>
          <CharString index="287">
            hlineto
            65 -51 callgsubr
            return
          </CharString>
          <CharString index="288">
            121 rlineto
            75 68 return
          </CharString>
          <CharString index="289">
            -278 231 callsubr
          </CharString>
          <CharString index="290">
            -23 322 412 rmoveto
            227 callsubr
            vlineto
            -32 callgsubr
            return
          </CharString>
          <CharString index="291">
            hlineto
            198 callsubr
            return
          </CharString>
          <CharString index="292">
            rmoveto
            -16 callsubr
            return
          </CharString>
          <CharString index="293">
            304 callsubr
            -68 90 51 vlineto
            27 return
          </CharString>
          <CharString index="294">
            439 callgsubr
            -30 callgsubr
            return
          </CharString>
          <CharString index="295">
            376 callgsubr
            91 68 vlineto
            59 return
          </CharString>
          <CharString index="296">
            -88 callsubr
            38 return
          </CharString>
          <CharString index="297">
            246 -120 -92 return
          </CharString>
          <CharString index="298">
            -50 6 -25 -36 callsubr
            116 hlineto
            27 17 6 15 10 hvcurveto
            -14 return
          </CharString>
          <CharString index="299">
            vlineto
            -61 -30 callgsubr
            114 hlineto
            14 10 2 5 8 hvcurveto
            -85 91 -101 callgsubr
          </CharString>
          <CharString index="300">
            vhcurveto
            -79 -142 63 callsubr
            return
          </CharString>
          <CharString index="301">
            25 375 callsubr
            -25 return
          </CharString>
          <CharString index="302">
            -412 -8 callgsubr
            return
          </CharString>
          <CharString index="303">
            481 736 182 rmoveto
            -26 -8 -8 -26 vhcurveto
            -138 hlineto
            -24 -5 351 callgsubr
            -189 71 364 hlineto
            return
          </CharString>
          <CharString index="304">
            109 vlineto
            62 -29 27 -68 -18 callsubr
            endchar
          </CharString>
          <CharString index="305">
            4 callgsubr
            -211 hlineto
            -61 142 callsubr
            return
          </CharString>
          <CharString index="306">
            -57 28 -28 58 vhcurveto
            return
          </CharString>
          <CharString index="307">
            124 62 -124 rlineto
            86 hlineto
            -79 143 rlineto
            46 7 19 28 48 vvcurveto
            127 vlineto
            57 -27 28 -65 vhcurveto
            -54 422 callsubr
            60 -78 callsubr
            return
          </CharString>
          <CharString index="308">
            43 93 callsubr
            -87 -70 63 18 callgsubr
            -21 391 callsubr
            -83 -80 callgsubr
            161 -73 callgsubr
            endchar
          </CharString>
          <CharString index="309">
            hlineto
            -95 callgsubr
            -82 callgsubr
            endchar
          </CharString>
          <CharString index="310">
            rmoveto
            -179 32 vlineto
            66 130 rlineto
            49 vlineto
            endchar
          </CharString>
          <CharString index="311">
            -63 callgsubr
            207 vlineto
            24 5 5 24 vhcurveto
            29 68 208 callgsubr
            69 hlineto
            return
          </CharString>
          <CharString index="312">
            126 86 callgsubr
            -218 -38 callsubr
            -57 78 -91 -221 91 75 84 358 callgsubr
            233 vlineto
            13 -3 8 -5 5 vhcurveto
            return
          </CharString>
          <CharString index="313">
            108 callsubr
            107 166 rlineto
            -114 90 return
          </CharString>
          <CharString index="314">
            hlineto
            216 callgsubr
            return
          </CharString>
          <CharString index="315">
            rmoveto
            -24 -5 -86 callgsubr
            204 vlineto
            5 -7 17 -38 31 -56 return
          </CharString>
          <CharString index="316">
            17 callsubr
            60 hlineto
            -1 -5 0 -5 return
          </CharString>
          <CharString index="317">
            hlineto
            -64 74 callsubr
            return
          </CharString>
          <CharString index="318">
            -35 -88 callsubr
            return
          </CharString>
          <CharString index="319">
            hlineto
            -24 -6 5 23 hvcurveto
            return
          </CharString>
          <CharString index="320" raw="1">
            e406cea8 0b  
          </CharString>
          <CharString index="321">
            -104 rmoveto
            271 callgsubr
            return
          </CharString>
          <CharString index="322">
            -41 callsubr
            158 27 vlineto
            return
          </CharString>
          <CharString index="323">
            hlineto
            -23 -6 6 23 hvcurveto
            40 94 callgsubr
            endchar
          </CharString>
          <CharString index="324">
            -374 231 callgsubr
            return
          </CharString>
          <CharString index="325">
            -7 275 700 rmoveto
            -273 -820 rlineto
            84 hlineto
            273 820 rlineto
            endchar
          </CharString>
          <CharString index="326">
            rmoveto
            -73 callsubr
            -138 -87 callsubr
            return
          </CharString>
          <CharString index="327">
            230 callgsubr
            -62 vhcurveto
            endchar
          </CharString>
          <CharString index="328">
            vlineto
            94 callsubr
            return
          </CharString>
          <CharString index="329">
            vlineto
            -57 29 -31 return
          </CharString>
          <CharString index="330">
            177 callsubr
            442 callsubr
            -23 399 callgsubr
            return
          </CharString>
          <CharString index="331">
            -33 callsubr
            -139 -75 callgsubr
            158 26 vlineto
            65 399 callsubr
            return
          </CharString>
          <CharString index="332">
            -84 rmoveto
            -23 -9 -10 -24 vhcurveto
            -40 -70 57 hlineto
            65 36 32 64 hvcurveto
            41 -85 vlineto
            return
          </CharString>
          <CharString index="333">
            -231 hlineto
            -89 6 -39 0 vhcurveto
            0 -25 50 return
          </CharString>
          <CharString index="334">
            144 72 70 -417 -70 255 -74 -91 return
          </CharString>
          <CharString index="335">
            -60 callsubr
            29 return
          </CharString>
          <CharString index="336">
            hlineto
            17 11 3 7 8 hvcurveto
            return
          </CharString>
          <CharString index="337">
            350 callsubr
            -189 213 callgsubr
            19 344 callgsubr
            return
          </CharString>
          <CharString index="338">
            89 -101 callgsubr
          </CharString>
          <CharString index="339">
            -70 66 -365 260 callgsubr
            return
          </CharString>
          <CharString index="340">
            27 -9 -22 12 -31 hhcurveto
            -36 356 callsubr
            -312 -47 callsubr
            -39 90 669 return
          </CharString>
          <CharString index="341">
            135 callsubr
            -89 -196 hlineto
            return
          </CharString>
          <CharString index="342">
            -28 65 vhcurveto
            160 46 callgsubr
            return
          </CharString>
          <CharString index="343">
            rmoveto
            102 94 -102 hlineto
            190 -94 rmoveto
            101 94 -101 hlineto
            return
          </CharString>
          <CharString index="344">
            vlineto
            168 callgsubr
            return
          </CharString>
          <CharString index="345">
            -11 callsubr
            -6 -5 return
          </CharString>
          <CharString index="346">
            435 callsubr
            -24 return
          </CharString>
          <CharString index="347">
            vlineto
            -23 19 callsubr
            return
          </CharString>
          <CharString index="348">
            180 rmoveto
            84 callsubr
            return
          </CharString>
          <CharString index="349">
            833 rmoveto
            -70 hlineto
            -65 320 callsubr
            -143 90 131 vlineto
            24 6 4 24 vhcurveto
            42 hlineto
            -40 -34 rmoveto
            -75 71 75 vlineto
            endchar
          </CharString>
          <CharString index="350">
            vlineto
            62 143 callgsubr
            -63 -22 callsubr
            84 vlineto
            endchar
          </CharString>
          <CharString index="351">
            rmoveto
            94 hlineto
            52 81 53 -81 rlineto
            93 hlineto
            -95 132 rlineto
            -101 hlineto
            endchar
          </CharString>
          <CharString index="352">
            -28 31 -65 vhcurveto
            return
          </CharString>
          <CharString index="353">
            183 callsubr
            -230 vlineto
            -61 29 -28 67 vhcurveto
            return
          </CharString>
          <CharString index="354">
            rmoveto
            73 -67 83 -91 -83 -46 -73 46 -327 212 callgsubr
            64 77 -38 -9 callgsubr
            309 vlineto
            endchar
          </CharString>
          <CharString index="355">
            185 callsubr
            378 99 vlineto
            return
          </CharString>
          <CharString index="356">
            hlineto
            -83 callgsubr
            134 return
          </CharString>
          <CharString index="357">
            308 vlineto
            55 -26 26 -52 3 vhcurveto
            75 vlineto
            endchar
          </CharString>
          <CharString index="358">
            hlineto
            -50 -28 -16 -34 -10 hvcurveto
            -102 124 return
          </CharString>
          <CharString index="359">
            -80 callsubr
            29 return
          </CharString>
          <CharString index="360">
            -158 rlineto
            98 hlineto
            return
          </CharString>
          <CharString index="361">
            -90 callsubr
            150 callsubr
            return
          </CharString>
          <CharString index="362">
            vlineto
            261 callgsubr
            return
          </CharString>
          <CharString index="363">
            -229 rmoveto
            33 hlineto
            66 130 rlineto
            49 -99 vlineto
            return
          </CharString>
          <CharString index="364">
            102 callsubr
            104 hlineto
            return
          </CharString>
          <CharString index="365">
            rmoveto
            281 callgsubr
            return
          </CharString>
          <CharString index="366">
            413 callsubr
            -6 -5 return
          </CharString>
          <CharString index="367">
            -61 -30 callgsubr
            81 hlineto
            22 13 6 14 7 447 callgsubr
            308 callsubr
            return
          </CharString>
          <CharString index="368">
            -163 275 callgsubr
          </CharString>
          <CharString index="369" raw="1">
            31fc0206 820ae6f7 480a0b 
          </CharString>
          <CharString index="370">
            65 27 30 57 hvcurveto
            return
          </CharString>
          <CharString index="371">
            3 -5 -28 hvcurveto
            return
          </CharString>
          <CharString index="372">
            18 -7 11 -15 3 vhcurveto
            15 3 7 12 19 vvcurveto
            88 vlineto
            31 -16 17 -35 vhcurveto
            -71 hlineto
            -35 -17 -17 -31 hvcurveto
            -59 61 return
          </CharString>
          <CharString index="373">
            32 317 callgsubr
            -155 hlineto
            271 callgsubr
            256 vlineto
            26 5 -6 -26 hvcurveto
            return
          </CharString>
          <CharString index="374">
            hlineto
            21 13 5 11 7 hvcurveto
            -126 87 -101 callgsubr
          </CharString>
          <CharString index="375">
            55 callgsubr
            endchar
          </CharString>
          <CharString index="376">
            rmoveto
            553 -90 -626 245 73 vlineto
            endchar
          </CharString>
          <CharString index="377">
            -78 callsubr
            29 68 return
          </CharString>
          <CharString index="378">
            -116 -87 callsubr
            return
          </CharString>
          <CharString index="379">
            -70 264 -74 -100 vlineto
            325 callsubr
            return
          </CharString>
          <CharString index="380">
            360 callgsubr
            77 -132 rcurveline
            -1 -4 -4 0 -4 hhcurveto
            return
          </CharString>
          <CharString index="381">
            vlineto
            -62 335 callgsubr
            45 hlineto
            -103 -154 rlineto
            98 hlineto
            106 164 rlineto
            -112 91 -101 callgsubr
          </CharString>
          <CharString index="382">
            vlineto
            -31 callsubr
            return
          </CharString>
          <CharString index="383">
            rmoveto
            299 callgsubr
            return
          </CharString>
          <CharString index="384">
            -89 callsubr
            215 return
          </CharString>
          <CharString index="385">
            406 callsubr
            -198 return
          </CharString>
          <CharString index="386">
            rmoveto
            -454 -70 76 hlineto
            160 callsubr
            return
          </CharString>
          <CharString index="387">
            252 callgsubr
            120 hlineto
            66 return
          </CharString>
          <CharString index="388">
            246 626 rmoveto
            -266 -70 266 hlineto
            return
          </CharString>
          <CharString index="389">
            -78 callsubr
            57 return
          </CharString>
          <CharString index="390">
            hlineto
            -17 47 callgsubr
            return
          </CharString>
          <CharString index="391">
            hlineto
            -23 369 callsubr
            return
          </CharString>
          <CharString index="392">
            vlineto
            319 callsubr
            return
          </CharString>
          <CharString index="393">
            -31 -22 -12 -27 -9 hvcurveto
            return
          </CharString>
          <CharString index="394">
            26 6 -6 -26 hvcurveto
            return
          </CharString>
          <CharString index="395">
            120 callsubr
            162 hlineto
            return
          </CharString>
          <CharString index="396">
            -31 rmoveto
            -90 -488 90 337 hlineto
            50 20 24 43 vhcurveto
            36 78 -20 hlineto
            -43 -26 -29 -32 -10 hvcurveto
            endchar
          </CharString>
          <CharString index="397">
            hlineto
            15 10 2 6 374 callsubr
          </CharString>
          <CharString index="398">
            676 rmoveto
            -73 105 -553 90 553 105 73 vlineto
            endchar
          </CharString>
          <CharString index="399">
            12 callsubr
            24 hvcurveto
            166 vlineto
            -35 callsubr
            -189 vlineto
            return
          </CharString>
          <CharString index="400">
            vlineto
            175 callsubr
            return
          </CharString>
          <CharString index="401">
            443 callsubr
            87 -24 callgsubr
            return
          </CharString>
          <CharString index="402">
            rmoveto
            -92 hlineto
            -82 -345 -87 345 rlineto
            -92 hlineto
            134 -428 rlineto
            -198 91 198 vlineto
            endchar
          </CharString>
          <CharString index="403">
            rmoveto
            -43 -26 -29 -32 -10 hvcurveto
            60 -90 -488 90 337 vlineto
            50 20 24 43 vhcurveto
            36 78 hlineto
            endchar
          </CharString>
          <CharString index="404">
            32 626 rmoveto
            -262 31 vlineto
            70 197 rlineto
            65 vlineto
            return
          </CharString>
          <CharString index="405">
            422 callsubr
            130 -78 callsubr
            return
          </CharString>
          <CharString index="406">
            hlineto
            53 callsubr
            return
          </CharString>
          <CharString index="407">
            -8 callgsubr
            hlineto
            endchar
          </CharString>
          <CharString index="408">
            102 callsubr
            81 402 callsubr
            return
          </CharString>
          <CharString index="409">
            -98 callsubr
            350 126 callsubr
            return
          </CharString>
          <CharString index="410">
            hlineto
            -65 -27 -30 -57 hvcurveto
            return
          </CharString>
          <CharString index="411">
            hlineto
            -57 -31 -26 -59 hvcurveto
            return
          </CharString>
          <CharString index="412">
            378 callgsubr
            252 -78 callsubr
            return
          </CharString>
          <CharString index="413">
            rmoveto
            199 callgsubr
            -27 -75 callgsubr
            152 272 callgsubr
            return
          </CharString>
          <CharString index="414">
            hlineto
            -62 31 -27 429 callsubr
            -85 -100 callsubr
          </CharString>
          <CharString index="415">
            -7 29 hhcurveto
            -94 callsubr
            return
          </CharString>
          <CharString index="416">
            hlineto
            -65 114 callgsubr
            return
          </CharString>
          <CharString index="417">
            vlineto
            7 callsubr
            return
          </CharString>
          <CharString index="418">
            vlineto
            24 6 5 382 callsubr
            return
          </CharString>
          <CharString index="419">
            -73 callgsubr
            31 hlineto
            return
          </CharString>
          <CharString index="420">
            vhcurveto
            -38 -9 callgsubr
            return
          </CharString>
          <CharString index="421">
            hlineto
            344 callsubr
            return
          </CharString>
          <CharString index="422">
            vlineto
            -61 -30 callgsubr
            104 hlineto
            return
          </CharString>
          <CharString index="423">
            228 callsubr
            68 return
          </CharString>
          <CharString index="424">
            102 85 callsubr
            return
          </CharString>
          <CharString index="425">
            28 7 2 35 vhcurveto
            25 70 return
          </CharString>
          <CharString index="426">
            57 -27 30 -65 vhcurveto
            return
          </CharString>
          <CharString index="427">
            -27 -27 -57 hvcurveto
            return
          </CharString>
          <CharString index="428">
            85 callsubr
            -45 -88 callsubr
            103 -80 callsubr
            75 hlineto
            return
          </CharString>
          <CharString index="429">
            85 callsubr
            -41 284 callsubr
            79 vlineto
            23 423 callgsubr
            return
          </CharString>
          <CharString index="430">
            98 callgsubr
            -114 339 callsubr
            return
          </CharString>
          <CharString index="431">
            -5 6 24 hvcurveto
            return
          </CharString>
          <CharString index="432">
            -32 callgsubr
            140 callgsubr
            return
          </CharString>
          <CharString index="433">
            -61 30 -28 60 vhcurveto
            63 291 callgsubr
          </CharString>
          <CharString index="434">
            -74 353 callsubr
            return
          </CharString>
          <CharString index="435">
            vlineto
            57 -29 27 -61 vhcurveto
            return
          </CharString>
          <CharString index="436">
            vlineto
            23 6 5 24 vhcurveto
            return
          </CharString>
          <CharString index="437">
            rmoveto
            332 callgsubr
            return
          </CharString>
          <CharString index="438">
            -6 -3 -8 -12 vvcurveto
            return
          </CharString>
          <CharString index="439">
            251 callgsubr
            97 hlineto
            108 436 callgsubr
            90 return
          </CharString>
          <CharString index="440">
            -97 hlineto
            -129 -314 127 -312 rlineto
            98 hlineto
            -131 312 rlineto
            endchar
          </CharString>
          <CharString index="441">
            hlineto
            -60 -30 -27 return
          </CharString>
          <CharString index="442">
            -124 -99 hlineto
            return
          </CharString>
          <CharString index="443">
            vlineto
            349 callgsubr
            return
          </CharString>
          <CharString index="444">
            88 hlineto
            67 155 callgsubr
            195 105 -362 -100 callsubr
          </CharString>
          <CharString index="445">
            -189 vlineto
            -61 29 -28 67 vhcurveto
            78 hlineto
            67 return
          </CharString>
          <CharString index="446">
            90 380 126 callsubr
            38 hlineto
            return
          </CharString>
          <CharString index="447">
            367 callsubr
            vlineto
            -32 callgsubr
            return
          </CharString>
          <CharString index="448">
            87 392 callgsubr
            return
          </CharString>
          <CharString index="449">
            hlineto
            107 436 callgsubr
            return
          </CharString>
          <CharString index="450">
            5 24 vhcurveto
            29 70 -57 hlineto
            return
          </CharString>
          <CharString index="451">
            319 callsubr
            -89 hlineto
            return
          </CharString>
          <CharString index="452">
            285 callgsubr
            33 return
          </CharString>
          <CharString index="453">
            -62 29 -27 67 vhcurveto
            return
          </CharString>
          <CharString index="454">
            vlineto
            -31 15 -15 return
          </CharString>
          <CharString index="455">
            rmoveto
            165 71 70 -626 -70 464 -95 -91 vlineto
            151 callgsubr
            return
          </CharString>
          <CharString index="456">
            vlineto
            130 callgsubr
            return
          </CharString>
          <CharString index="457">
            318 callsubr
            -219 -70 72 342 callgsubr
            return
          </CharString>
          <CharString index="458">
            -70 72 -381 hlineto
            -61 -30 callgsubr
            41 hlineto
            -105 -166 rlineto
            97 hlineto
            return
          </CharString>
          <CharString index="459">
            rmoveto
            -100 hlineto
            105 -132 rlineto
            77 hlineto
            endchar
          </CharString>
          <CharString index="460">
            -257 -20 callsubr
            return
          </CharString>
          <CharString index="461">
            -169 hlineto
            -61 142 callsubr
            return
          </CharString>
          <CharString index="462">
            vlineto
            57 -26 30 -65 vhcurveto
            return
          </CharString>
          <CharString index="463">
            hlineto
            -62 -28 -31 -58 hvcurveto
            return
          </CharString>
          <CharString index="464">
            -176 rmoveto
            -26 -6 -6 return
          </CharString>
          <CharString index="465">
            vlineto
            24 8 8 24 vhcurveto
            return
          </CharString>
          <CharString index="466">
            197 vlineto
            24 return
          </CharString>
          <CharString index="467">
            329 658 287 callgsubr
            88 70 -766 -70 587 -74 return
          </CharString>
          <CharString index="468">
            vhcurveto
            111 callsubr
            return
          </CharString>
          <CharString index="469">
            819 rmoveto
            -108 hlineto
            66 -91 37 -50 32 -39 27 -24 rlinecurve
            89 hlineto
            return
          </CharString>
          <CharString index="470">
            -162 183 626 rmoveto
            -163 -73 72 -553 91 hlineto
            endchar
          </CharString>
          <CharString index="471">
            -60 callsubr
            71 hlineto
            -367 return
          </CharString>
          <CharString index="472">
            5 24 vhcurveto
            5 -93 callsubr
            return
          </CharString>
          <CharString index="473">
            -70 72 187 callsubr
            return
          </CharString>
          <CharString index="474">
            -70 264 -74 -100 return
          </CharString>
          <CharString index="475">
            424 callsubr
            -83 return
          </CharString>
          <CharString index="476">
            -6 5 24 hvcurveto
            return
          </CharString>
          <CharString index="477">
            303 callgsubr
            -94 -72 -70 72 -43 callsubr
            return
          </CharString>
          <CharString index="478">
            vlineto
            -61 29 -28 67 vhcurveto
            55 hlineto
            18 -63 callsubr
            -89 90 return
          </CharString>
          <CharString index="479">
            397 callgsubr
            57 hlineto
            return
          </CharString>
          <CharString index="480">
            103 callgsubr
            -23 callgsubr
            return
          </CharString>
          <CharString index="481">
            8 hvcurveto
            -86 -100 callsubr
          </CharString>
          <CharString index="482">
            -2 vhcurveto
            -3 vlineto
            return
          </CharString>
          <CharString index="483">
            -91 -50 vlineto
            -21 -5 callsubr
            -79 -75 callgsubr
            return
          </CharString>
          <CharString index="484">
            160 callgsubr
            -5 5 23 hvcurveto
            return
          </CharString>
          <CharString index="485">
            vlineto
            13 -3 8 -5 5 vhcurveto
            176 hlineto
            436 callsubr
            return
          </CharString>
          <CharString index="486">
            220 callgsubr
            -89 return
          </CharString>
          <CharString index="487">
            401 callsubr
            endchar
          </CharString>
          <CharString index="488">
            385 callsubr
            -57 hvcurveto
            return
          </CharString>
          <CharString index="489">
            24 vhcurveto
            35 hlineto
            23 10 -9 -26 hvcurveto
            return
          </CharString>
          <CharString index="490">
            26 5 -6 -26 hvcurveto
            -144 vlineto
            -26 return
          </CharString>
          <CharString index="491">
            334 287 callgsubr
            return
          </CharString>
          <CharString index="492">
            335 callsubr
            -65 -27 -28 return
          </CharString>
          <CharString index="493">
            -68 callgsubr
            -31 return
          </CharString>
          <CharString index="494">
            287 rmoveto
            -162 -217 return
          </CharString>
          <CharString index="495">
            hlineto
            151 callgsubr
            return
          </CharString>
          <CharString index="496">
            -6 -6 -4 -11 -15 vvcurveto
            return
          </CharString>
          <CharString index="497">
            vlineto
            -23 -6 -5 -23 vhcurveto
            return
          </CharString>
          <CharString index="498">
            vlineto
            199 callgsubr
            return
          </CharString>
          <CharString index="499">
            -105 -158 rlineto
            97 hlineto
            return
          </CharString>
          <CharString index="500">
            vhcurveto
            35 6 callsubr
            return
          </CharString>
          <CharString index="501">
            rmoveto
            -95 84 95 vlineto
            return
          </CharString>
          <CharString index="502">
            -198 rlineto
            -11 return
          </CharString>
          <CharString index="503">
            210 callgsubr
            -65 -27 -27 -58 hvcurveto
            return
          </CharString>
          <CharString index="504">
            -75 callgsubr
            204 vlineto
            21 6 9 25 vhcurveto
            return
          </CharString>
          <CharString index="505">
            -210 hlineto
            -89 6 -40 0 vhcurveto
            0 -23 43 -29 45 vhcurveto
            return
          </CharString>
          <CharString index="506">
            19 callgsubr
            102 98 callsubr
            return
          </CharString>
          <CharString index="507">
            7 callsubr
            264 return
          </CharString>
          <CharString index="508">
            -9 callgsubr
            36 -78 callsubr
            return
          </CharString>
          <CharString index="509">
            hlineto
            22 13 6 15 7 hvcurveto
            -14 16 23 -7 33 hhcurveto
            return
          </CharString>
          <CharString index="510" raw="1">
            074ea86f ce1ed63c 0a0b 
          </CharString>
          <CharString index="511">
            hlineto
            40 426 callsubr
            return
          </CharString>
          <CharString index="512">
            vlineto
            -24 -6 -5 -22 36 callsubr
            return
          </CharString>
          <CharString index="513">
            167 callsubr
            23 return
          </CharString>
          <CharString index="514">
            -82 48 259 rmoveto
            218 70 -218 hlineto
            endchar
          </CharString>
          <CharString index="515">
            -80 callsubr
            57 hlineto
            return
          </CharString>
          <CharString index="516">
            -78 callsubr
            75 hlineto
            return
          </CharString>
          <CharString index="517">
            478 rmoveto
            -823 -70 661 return
          </CharString>
          <CharString index="518">
            -351 -20 callsubr
            return
          </CharString>
          <CharString index="519">
            -59 callgsubr
            70 vlineto
            endchar
          </CharString>
          <CharString index="520">
            -378 rmoveto
            -25 return
          </CharString>
          <CharString index="521">
            62 hlineto
            17 12 -72 callgsubr
            -89 90 556 return
          </CharString>
          <CharString index="522">
            6 -5 -24 hvcurveto
            -166 -68 callgsubr
            return
          </CharString>
          <CharString index="523">
            78 129 rlineto
            16 25 6 26 32 vvcurveto
            33 vlineto
            return
          </CharString>
          <CharString index="524">
            -130 161 -90 -161 -130 -71 130 return
          </CharString>
          <CharString index="525">
            -78 callsubr
            endchar
          </CharString>
          <CharString index="526">
            vlineto
            -23 -5 callsubr
            return
          </CharString>
          <CharString index="527">
            rmoveto
            -57 callgsubr
            return
          </CharString>
          <CharString index="528">
            hlineto
            68 -54 callsubr
            return
          </CharString>
          <CharString index="529">
            -42 callgsubr
            23 hvcurveto
            return
          </CharString>
          <CharString index="530">
            151 callsubr
            25 vhcurveto
            return
          </CharString>
          <CharString index="531">
            -70 247 -74 return
          </CharString>
          <CharString index="532">
            -140 vlineto
            -61 return
          </CharString>
          <CharString index="533">
            264 callsubr
            -65 -38 callsubr
            return
          </CharString>
          <CharString index="534">
            -87 callsubr
            196 124 vlineto
            return
          </CharString>
          <CharString index="535">
            482 rmoveto
            353 callsubr
            return
          </CharString>
          <CharString index="536">
            65 vhcurveto
            160 hlineto
            16 12 -72 callgsubr
            return
          </CharString>
          <CharString index="537">
            -24 vhcurveto
            -70 -16 77 -82 hhcurveto
            -37 hlineto
            -61 -23 return
          </CharString>
          <CharString index="538">
            15 -16 11 callgsubr
            return
          </CharString>
          <CharString index="539">
            -70 245 335 callsubr
            return
          </CharString>
          <CharString index="540">
            27 104 callgsubr
            return
          </CharString>
          <CharString index="541">
            -37 callgsubr
            -189 vlineto
            return
          </CharString>
          <CharString index="542">
            vhcurveto
            57 73 -29 hlineto
            return
          </CharString>
          <CharString index="543">
            40 264 callsubr
            return
          </CharString>
          <CharString index="544" raw="1">
            4e611d0b   
          </CharString>
          <CharString index="545">
            24 vhcurveto
            24 hlineto
            return
          </CharString>
          <CharString index="546">
            vhcurveto
            172 -2 rmoveto
            -626 89 556 return
          </CharString>
          <CharString index="547">
            504 921 626 rmoveto
            -941 -70 return
          </CharString>
          <CharString index="548">
            rlineto
            383 callgsubr
            return
          </CharString>
          <CharString index="549">
            -354 rmoveto
            199 callgsubr
            -45 hlineto
            return
          </CharString>
          <CharString index="550">
            36 callsubr
            164 return
          </CharString>
          <CharString index="551">
            rmoveto
            -94 101 94 vlineto
            endchar
          </CharString>
          <CharString index="552">
            28 55 hvcurveto
            56 return
          </CharString>
          <CharString index="553">
            339 hmoveto
            70 return
          </CharString>
          <CharString index="554">
            0 -6 -7 vvcurveto
            return
          </CharString>
        <CharString name=".notdef">
          354 176 hmoveto
          399 701 -399 hlineto
          59 -55 rmoveto
          281 -591 -281 hlineto
          endchar
        </CharString>
        <CharString name="A">
          -12 136 218 rmoveto
          -56 callgsubr
        </CharString>
        <CharString name="AE">
          182 181 221 rmoveto
          105 293 rlineto
          -293 vlineto
          89 -148 rmoveto
          214 144 73 -144 193 174 73 -306 vlineto
          -232 -626 rlineto
          91 hlineto
          53 149 rlineto
          131 -149 270 73 hlineto
          endchar
        </CharString>
        <CharString name="Aacute">
          -12 333 789 59 callgsubr
          -92 -439 rmoveto
          -56 callgsubr
        </CharString>
        <CharString name="Abreve">
          -12 239 657 rmoveto
          65 29 31 58 hvcurveto
          43 -84 78 callgsubr
          -2 -439 rmoveto
          -56 callgsubr
        </CharString>
        <CharString name="Acircumflex">
          -12 188 738 50 callgsubr
          -439 vmoveto
          -56 callgsubr
        </CharString>
        <CharString name="Adieresis">
          -12 334 751 148 callsubr
          -9 -439 rmoveto
          -56 callgsubr
        </CharString>
        <CharString name="Agrave">
          -12 220 657 131 callgsubr
          -7 -439 rmoveto
          -56 callgsubr
        </CharString>
        <CharString name="Amacron">
          -12 322 726 253 callgsubr
          -186 -440 rmoveto
          -56 callgsubr
        </CharString>
        <CharString name="Aogonek">
          -12 136 218 rmoveto
          52 330 57 -330 rlineto
          65 -380 rmoveto
          81 callsubr
          97 -2 hlineto
          -117 615 rlineto
          -131 hlineto
          -111 -626 rlineto
          90 hlineto
          23 145 rlineto
          132 hlineto
          25 -145 rlineto
          20 -23 -8 hlineto
          363 callgsubr
        </CharString>
        <CharString name="Aring">
          -12 146 740 -4 callgsubr
          -20 -440 rmoveto
          -56 callgsubr
        </CharString>
        <CharString name="Atilde">
          -12 123 673 rmoveto
          178 callsubr
          -8 callsubr
          vlineto
          13 -440 rmoveto
          -56 callgsubr
        </CharString>
        <CharString name="B">
          12 52 626 rmoveto
          -626 217 vlineto
          132 callgsubr
          171 vlineto
          33 -13 18 -27 7 vhcurveto
          27 6 13 22 34 vvcurveto
          159 vlineto
          57 -29 31 -65 vhcurveto
          3 -526 85 callsubr
          -100 212 100 -93 callsubr
          129 vmoveto
          -26 callsubr
          -100 201 100 -93 callsubr
          endchar
        </CharString>
        <CharString name="C">
          -20 340 430 -22 callgsubr
        </CharString>
        <CharString name="CR">
          -252 endchar
        </CharString>
        <CharString name="Cacute">
          -20 336 789 59 callgsubr
          109 -227 -22 callgsubr
        </CharString>
        <CharString name="Ccaron">
          -20 244 657 -1 callsubr
          197 -227 -22 callgsubr
        </CharString>
        <CharString name="Ccedilla">
          -20 153 225 callsubr
          187 480 -22 callgsubr
        </CharString>
        <CharString name="D">
          15 274 100 202 callgsubr
        </CharString>
        <CharString name="Dcaron">
          15 254 657 -1 callsubr
          121 -557 202 callgsubr
        </CharString>
        <CharString name="Dcroat">
          17 274 102 433 callgsubr
          207 75 71 -75 202 99 -93 callsubr
          -220 102 rmoveto
          -275 -51 -71 51 -280 173 callgsubr
        </CharString>
        <CharString name="E">
          -54 143 73 rmoveto
          214 56 callgsubr
          vlineto
          endchar
        </CharString>
        <CharString name="Eacute">
          -54 325 789 59 callgsubr
          -77 -370 rmoveto
          56 callgsubr
          -181 hlineto
          endchar
        </CharString>
        <CharString name="Ecaron">
          -54 235 657 -1 callsubr
          9 -370 rmoveto
          56 callgsubr
          -181 hlineto
          endchar
        </CharString>
        <CharString name="Ecircumflex">
          -54 186 738 50 callgsubr
          9 -370 rmoveto
          56 callgsubr
          -181 hlineto
          endchar
        </CharString>
        <CharString name="Edieresis">
          -43 139 751 rmoveto
          -102 -94 102 hlineto
          4 -370 rmoveto
          56 callgsubr
          -181 hlineto
          84 678 444 callsubr
        </CharString>
        <CharString name="Edotaccent">
          -54 246 753 rmoveto
          -107 -96 107 hlineto
          -103 -584 rmoveto
          214 56 callgsubr
          vlineto
          endchar
        </CharString>
        <CharString name="Egrave">
          -54 223 657 131 callgsubr
          -3 -584 rmoveto
          214 56 callgsubr
          vlineto
          endchar
        </CharString>
        <CharString name="Emacron">
          -54 317 739 253 callgsubr
          -174 -598 rmoveto
          214 56 callgsubr
          vlineto
          endchar
        </CharString>
        <CharString name="Eogonek">
          -54 261 -162 rmoveto
          81 callsubr
          159 -181 214 144 73 -144 193 174 73 -265 -626 201 -23 -8 hlineto
          363 callgsubr
        </CharString>
        <CharString name="Eth">
          15 274 100 433 callgsubr
          209 75 71 -75 204 99 -93 callsubr
          -220 100 rmoveto
          -275 -51 -71 51 -280 173 callgsubr
        </CharString>
        <CharString name="Euro">
          2 362 430 rmoveto
          108 196 callgsubr
          -106 hlineto
          -65 171 callsubr
          -133 -46 -66 46 -51 -46 -67 46 -133 vlineto
          -58 29 -31 65 vhcurveto
          106 hlineto
          64 29 31 58 hvcurveto
          106 -91 -95 15 callgsubr
          -51 -9 callgsubr
          122 87 67 -87 51 87 66 -87 121 -78 callsubr
          51 -93 callsubr
          -96 vlineto
          endchar
        </CharString>
        <CharString name="F">
          -65 325 553 rmoveto
          73 -273 -626 91 276 144 71 -144 206 vlineto
          endchar
        </CharString>
        <CharString name="G">
          -15 340 443 21 callsubr
        </CharString>
        <CharString name="Gbreve">
          -15 244 657 rmoveto
          65 29 31 58 hvcurveto
          43 -84 78 callgsubr
          197 -214 21 callsubr
        </CharString>
        <CharString name="H">
          20 275 626 rmoveto
          -278 -133 278 -90 -626 90 275 133 -275 90 626 vlineto
          endchar
        </CharString>
        <CharString name="I">
          168 callsubr
          endchar
        </CharString>
        <CharString name="Iacute">
          168 callsubr
          -81 31 179 callgsubr
          endchar
        </CharString>
        <CharString name="Icircumflex">
          168 callsubr
          -190 31 244 callsubr
        </CharString>
        <CharString name="Idieresis">
          -187 -42 657 236 callsubr
          -88 -125 rmoveto
          -626 90 626 vlineto
          endchar
        </CharString>
        <CharString name="Idotaccent">
          168 callsubr
          -99 44 rmoveto
          107 96 -107 hlineto
          endchar
        </CharString>
        <CharString name="Igrave">
          168 callsubr
          -89 163 352 callsubr
        </CharString>
        <CharString name="Imacron">
          168 callsubr
          -180 45 341 callgsubr
        </CharString>
        <CharString name="Iogonek">
          -187 87 -162 rmoveto
          81 callsubr
          712 -90 -626 19 -23 -8 hlineto
          363 callgsubr
        </CharString>
        <CharString name="J">
          -63 14 206 rmoveto
          -118 127 callgsubr
          85 hlineto
          132 callsubr
          538 -91 -524 15 callgsubr
          -29 -88 callsubr
          104 vlineto
          endchar
        </CharString>
        <CharString name="K">
          -13 52 hmoveto
          90 626 -90 hlineto
          322 hmoveto
          333 callsubr
        </CharString>
        <CharString name="L">
          -96 142 73 269 callsubr
        </CharString>
        <CharString name="Lacute">
          -96 241 789 59 callgsubr
          6 -584 269 callsubr
        </CharString>
        <CharString name="Lcaron">
          -96 251 578 rmoveto
          47 -73 -171 30 vlineto
          -66 -381 269 callsubr
        </CharString>
        <CharString name="Lslash">
          -88 144 73 rmoveto
          222 vlineto
          100 47 rlineto
          70 vlineto
          -100 -47 rlineto
          261 -90 -303 vlineto
          -76 -35 rlineto
          -71 vlineto
          76 36 rlineto
          -253 245 73 vlineto
          endchar
        </CharString>
        <CharString name="M">
          119 299 136 rmoveto
          86 322 rlineto
          -458 79 626 -99 vlineto
          -107 -388 -107 388 rlineto
          -99 -626 79 457 hlineto
          86 -321 rlineto
          endchar
        </CharString>
        <CharString name="N">
          13 275 626 275 callgsubr
        </CharString>
        <CharString name="NULL">
          -397 endchar
        </CharString>
        <CharString name="Nacute">
          13 167 657 179 callgsubr
          26 261 callsubr
        </CharString>
        <CharString name="Ncaron">
          13 157 657 rmoveto
          101 hlineto
          95 132 rlineto
          -93 hlineto
          -53 -81 -52 81 rlineto
          -94 hlineto
          214 261 callsubr
        </CharString>
        <CharString name="Ntilde">
          13 275 626 66 callsubr
          -97 32 rmoveto
          -8 callsubr
          15 vlineto
          178 callsubr
          endchar
        </CharString>
        <CharString name="O">
          -4 255 102 -86 callsubr
        </CharString>
        <CharString name="OE">
          167 261 100 85 callsubr
          -58 -9 callgsubr
          426 -78 callsubr
          58 -93 callsubr
          95 -455 rmoveto
          217 144 71 -144 196 174 71 -247 -19 vlineto
          12 -14 -19 7 -27 hhcurveto
          -77 hlineto
          -64 62 callgsubr
          64 vhcurveto
          78 hlineto
          27 19 7 12 13 hvcurveto
          -19 254 71 vlineto
          endchar
        </CharString>
        <CharString name="Oacute">
          -4 334 789 59 callgsubr
          26 -555 -86 callsubr
        </CharString>
        <CharString name="Ocircumflex">
          -4 195 738 50 callgsubr
          112 -555 -86 callsubr
        </CharString>
        <CharString name="Odieresis">
          -8 342 751 148 callsubr
          102 -555 -86 callsubr
        </CharString>
        <CharString name="Ograve">
          -4 225 657 131 callgsubr
          107 -555 -86 callsubr
        </CharString>
        <CharString name="Ohungarumlaut">
          -8 288 657 120 callgsubr
          86 -555 -86 callsubr
        </CharString>
        <CharString name="Omacron">
          -4 330 726 253 callgsubr
          -75 -556 -86 callsubr
        </CharString>
        <CharString name="Oslash">
          4 262 98 rmoveto
          -24 -6 -6 -25 vhcurveto
          -62 hlineto
          -18 -7 3 10 -3 hvcurveto
          121 324 rlineto
          -123 124 rmoveto
          23 5 6 25 vhcurveto
          62 hlineto
          19 8 -3 -12 3 hvcurveto
          -122 -325 rlineto
          213 428 rmoveto
          -53 hlineto
          -9 -24 rlineto
          3 -10 -11 1 -13 hhcurveto
          -111 hlineto
          -65 74 callsubr
          -25 6 -20 11 -14 vhcurveto
          -18 -49 rlineto
          53 hlineto
          9 23 rlineto
          -2 10 11 -1 12 hhcurveto
          446 callgsubr
          28 31 57 hvcurveto
          450 vlineto
          24 -5 20 -11 14 vhcurveto
          endchar
        </CharString>
        <CharString name="Otilde">
          -4 133 673 rmoveto
          178 callsubr
          -8 callsubr
          vlineto
          122 -556 -86 callsubr
        </CharString>
        <CharString name="P">
          -19 260 344 rmoveto
          -24 -6 -6 -24 vhcurveto
          -88 239 88 -93 callsubr
          -208 102 rmoveto
          -626 90 242 115 vlineto
          65 28 30 58 hvcurveto
          208 vlineto
          57 359 callgsubr
        </CharString>
        <CharString name="Q">
          -4 138 524 420 callsubr
          58 -93 callsubr
          -422 15 callgsubr
          -58 -9 callgsubr
          222 -193 rmoveto
          -71 95 rlineto
          39 11 17 28 45 vvcurveto
          450 vlineto
          200 callgsubr
          -111 hlineto
          -65 62 callgsubr
          65 vhcurveto
          57 hlineto
          66 -91 rlineto
          endchar
        </CharString>
        <CharString name="R">
          -1 142 553 53 callgsubr
        </CharString>
        <CharString name="Racute">
          -1 336 789 59 callgsubr
          -89 -104 53 callgsubr
        </CharString>
        <CharString name="Rcaron">
          -1 247 657 -1 callsubr
          -4 -104 53 callgsubr
        </CharString>
        <CharString name="S">
          -36 232 102 64 callsubr
        </CharString>
        <CharString name="Sacute">
          -36 142 657 179 callgsubr
          8 61 callgsubr
        </CharString>
        <CharString name="Scaron">
          -36 131 657 rmoveto
          101 hlineto
          95 132 rlineto
          -93 hlineto
          -53 -81 -52 81 rlineto
          -94 hlineto
          197 61 callgsubr
        </CharString>
        <CharString name="T">
          -87 305 626 rmoveto
          -300 -73 105 -553 90 553 105 hlineto
          endchar
        </CharString>
        <CharString name="Tcaron">
          -87 206 657 -1 callsubr
          200 -31 rmoveto
          -300 -73 105 -553 90 553 105 hlineto
          endchar
        </CharString>
        <CharString name="Thorn">
          -12 259 224 85 callsubr
          -86 236 86 -93 callsubr
          -116 101 rmoveto
          123 -90 -626 90 123 113 vlineto
          65 28 31 57 hvcurveto
          204 vlineto
          57 359 callgsubr
        </CharString>
        <CharString name="U">
          0 257 626 -40 callgsubr
        </CharString>
        <CharString name="Uacute">
          0 340 789 59 callgsubr
          22 -31 -40 callgsubr
        </CharString>
        <CharString name="Ucircumflex">
          0 198 738 50 callgsubr
          111 -31 -40 callgsubr
        </CharString>
        <CharString name="Udieresis">
          0 344 751 148 callsubr
          102 -31 -40 callgsubr
        </CharString>
        <CharString name="Ugrave">
          0 237 657 131 callgsubr
          97 -31 -40 callgsubr
        </CharString>
        <CharString name="Uhungarumlaut">
          -4 286 657 120 callgsubr
          90 -555 rmoveto
          -24 -5 -5 -25 vhcurveto
          -57 -88 callsubr
          524 -91 -538 212 callgsubr
          111 hlineto
          132 callgsubr
          538 -91 vlineto
          endchar
        </CharString>
        <CharString name="Umacron">
          0 333 726 253 callgsubr
          -76 -32 -40 callgsubr
        </CharString>
        <CharString name="Uogonek">
          0 257 626 rmoveto
          -524 vlineto
          -24 -5 -5 -25 vhcurveto
          -57 -88 callsubr
          524 -91 -538 212 callgsubr
          28 -23 -8 hlineto
          68 callgsubr
          -81 hlineto
          81 callsubr
          86 12 hlineto
          132 callgsubr
          538 vlineto
          endchar
        </CharString>
        <CharString name="Uring">
          0 155 740 -4 callgsubr
          92 -32 -40 callgsubr
        </CharString>
        <CharString name="V">
          -33 266 626 rmoveto
          -85 -543 -83 543 rlineto
          -93 hlineto
          113 -626 rlineto
          128 hlineto
          113 626 rlineto
          endchar
        </CharString>
        <CharString name="W">
          212 508 626 rmoveto
          -73 -544 -81 544 rlineto
          -100 hlineto
          -81 -544 -70 544 rlineto
          -93 hlineto
          100 -626 rlineto
          125 hlineto
          69 470 70 -470 rlineto
          125 hlineto
          100 626 rlineto
          endchar
        </CharString>
        <CharString name="X">
          -24 235 320 rmoveto
          121 306 rlineto
          -98 hlineto
          -73 -225 -72 225 rlineto
          -100 hlineto
          123 -306 -132 -320 rlineto
          97 hlineto
          84 238 84 -238 rlineto
          100 hlineto
          endchar
        </CharString>
        <CharString name="Y">
          -36 357 626 295 callsubr
        </CharString>
        <CharString name="Yacute">
          -36 325 789 59 callgsubr
          137 -31 295 callsubr
        </CharString>
        <CharString name="Ydieresis">
          -40 327 755 148 callsubr
          219 -35 295 callsubr
        </CharString>
        <CharString name="Z">
          -84 305 627 rmoveto
          -286 -73 144 callgsubr
          endchar
        </CharString>
        <CharString name="Zacute">
          -84 309 789 59 callgsubr
          -185 -103 rmoveto
          144 callgsubr
          73 -286 vlineto
          endchar
        </CharString>
        <CharString name="Zcaron">
          -84 213 657 -1 callsubr
          -93 -103 rmoveto
          144 callgsubr
          73 -286 vlineto
          endchar
        </CharString>
        <CharString name="Zdotaccent">
          -84 218 753 rmoveto
          -107 -96 107 hlineto
          87 -30 rmoveto
          -286 -73 144 callgsubr
          endchar
        </CharString>
        <CharString name="a">
          -37 158 73 -67 callsubr
          -39 90 488 vlineto
          endchar
        </CharString>
        <CharString name="aacute">
          -37 328 651 59 callgsubr
          -65 -446 -29 callsubr
          endchar
        </CharString>
        <CharString name="abreve">
          -37 158 73 -29 callsubr
          17 163 rmoveto
          78 callgsubr
          101 hlineto
          65 29 31 58 hvcurveto
          43 vlineto
          endchar
        </CharString>
        <CharString name="acircumflex">
          -37 182 600 50 callgsubr
          28 -446 -29 callsubr
          endchar
        </CharString>
        <CharString name="acute">
          24 118 519 179 callgsubr
          endchar
        </CharString>
        <CharString name="adieresis">
          -37 135 635 rmoveto
          -102 -94 102 hlineto
          23 -468 -29 callsubr
          -3 147 444 callsubr
        </CharString>
        <CharString name="ae">
          160 163 73 330 callsubr
          66 vlineto
          98 39 rlineto
          -104 vlineto
          -23 -2 -10 -7 -21 hhcurveto
          199 343 rmoveto
          100 callgsubr
          -104 -106 104 -78 callsubr
          156 -201 rmoveto
          5 10 179 391 callgsubr
          -78 hlineto
          337 callgsubr
          -88 90 75 -80 callsubr
          35 hlineto
          21 10 -8 -22 2 hvcurveto
          -106 vlineto
          -188 -77 rlineto
          -114 175 callgsubr
          vlineto
          endchar
        </CharString>
        <CharString name="agrave">
          -37 245 519 131 callgsubr
          -10 -446 -67 callsubr
          -39 90 488 vlineto
          endchar
        </CharString>
        <CharString name="amacron">
          -37 310 619 253 callgsubr
          -152 -478 -67 callsubr
          -39 90 488 vlineto
          endchar
        </CharString>
        <CharString name="ampersand">
          64 156 71 330 callsubr
          77 vlineto
          32 9 11 21 14 vhcurveto
          24 16 149 -179 rlineto
          -178 456 420 callsubr
          46 -93 callsubr
          -82 vlineto
          -41 -18 -17 -39 -26 vhcurveto
          -6 -5 rlineto
          -23 27 -19 25 28 vvcurveto
          363 -471 rmoveto
          -83 101 rlineto
          1 7 1 7 8 vvcurveto
          142 -73 -77 vlineto
          -115 141 23 15 rlineto
          50 32 26 32 72 vvcurveto
          93 vlineto
          57 -28 31 -64 vhcurveto
          -97 hlineto
          -65 171 callsubr
          -96 vlineto
          -48 32 -39 36 -45 vhcurveto
          -30 -22 rlineto
          -46 -29 -15 -22 -45 vvcurveto
          -104 127 callgsubr
          208 hlineto
          17 15 2 5 12 hvcurveto
          35 -42 rlineto
          endchar
        </CharString>
        <CharString name="aogonek">
          -37 158 73 -55 callsubr
          60 -235 361 callgsubr
          -39 hlineto
          49 callsubr
          19 -23 -8 vlineto
          363 callgsubr
        </CharString>
        <CharString name="apostrophemod">
          -231 297 callsubr
          endchar
        </CharString>
        <CharString name="approxequal">
          94 326 375 rmoveto
          35 hlineto
          61 24 31 50 hvcurveto
          61 -84 -41 vlineto
          -23 -3 -12 430 callsubr
          -29 -52 hvcurveto
          -61 83 42 vlineto
          22 5 12 24 vhcurveto
          66 12 -77 90 hhcurveto
          -175 vmoveto
          35 hlineto
          61 24 30 51 hvcurveto
          61 -84 -42 vlineto
          -23 -3 -11 430 callsubr
          -30 -51 hvcurveto
          -61 83 42 vlineto
          21 5 13 24 vhcurveto
          66 12 -77 90 hhcurveto
          endchar
        </CharString>
        <CharString name="aring">
          -37 141 610 -4 callgsubr
          7 -455 -67 callsubr
          -39 90 488 vlineto
          endchar
        </CharString>
        <CharString name="asciicircum">
          101 187 671 rmoveto
          -132 -354 rlineto
          94 hlineto
          95 270 96 -270 rlineto
          94 hlineto
          -133 354 rlineto
          endchar
        </CharString>
        <CharString name="asciitilde">
          127 344 213 rmoveto
          34 hlineto
          61 24 31 51 hvcurveto
          65 -83 -46 vlineto
          -23 -3 -11 -24 vhcurveto
          -70 -18 81 -83 hhcurveto
          -37 hlineto
          -60 -24 -30 -51 hvcurveto
          -66 83 47 vlineto
          21 5 12 25 vhcurveto
          66 14 -81 90 hhcurveto
          endchar
        </CharString>
        <CharString name="asterisk">
          -77 305 493 rmoveto
          -24 72 -33 -11 -24 -7 -19 -9 -14 -9 rlinecurve
          4 16 3 20 25 vvcurveto
          36 -75 -36 vlineto
          -25 3 -21 4 -16 vhcurveto
          -14 9 -19 9 -24 8 -34 11 rcurveline
          -23 -71 34 -11 24 -8 20 -4 17 -1 rlinecurve
          -13 -11 -14 -15 -15 -20 -22 -29 rcurveline
          62 -44 21 28 15 21 9 19 7 15 rlinecurve
          6 -15 10 -18 14 -20 21 -30 rcurveline
          61 44 -21 29 -15 21 -14 15 -13 10 rlinecurve
          16 2 21 3 23 8 rrcurveto
          endchar
        </CharString>
        <CharString name="at">
          299 233 343 rmoveto
          -176 vlineto
          -56 28 -30 60 vhcurveto
          27 hlineto
          34 27 15 36 5 hvcurveto
          -51 145 vlineto
          62 33 callgsubr
          318 vlineto
          58 -29 30 -61 vhcurveto
          -394 hlineto
          -62 -28 -30 -58 hvcurveto
          -469 vlineto
          -57 28 -31 62 vhcurveto
          326 72 -301 hlineto
          -24 -5 6 23 hvcurveto
          442 17 callsubr
          344 hlineto
          25 5 -6 -24 hvcurveto
          -295 vlineto
          -23 -5 -6 -25 vhcurveto
          -44 280 -82 -39 hlineto
          27 -9 -22 12 -30 hhcurveto
          -27 hlineto
          -60 -28 -30 -56 hvcurveto
          85 -11 rmoveto
          23 -34 callsubr
          29 hlineto
          22 10 -8 -26 hvcurveto
          -142 vlineto
          -26 -10 -9 -22 vhcurveto
          -29 hlineto
          -24 -5 6 23 hvcurveto
          endchar
        </CharString>
        <CharString name="atilde">
          -37 113 549 rmoveto
          178 callsubr
          -8 callsubr
          vlineto
          45 -461 -67 callsubr
          -39 90 488 vlineto
          endchar
        </CharString>
        <CharString name="b">
          -37 232 317 callsubr
          -35 hlineto
          -23 -10 9 26 hvcurveto
          273 vlineto
          26 10 9 23 393 callsubr
          -6 -23 hvcurveto
          -36 102 rmoveto
          286 callsubr
          219 -90 -669 90 39 vlineto
          -27 9 22 -12 31 hhcurveto
          35 hlineto
          62 33 callgsubr
          312 220 callsubr
        </CharString>
        <CharString name="backslash">
          -7 31 700 rmoveto
          273 -820 rlineto
          84 hlineto
          -273 820 rlineto
          endchar
        </CharString>
        <CharString name="bar">
          -200 54 743 rmoveto
          -861 87 861 vlineto
          endchar
        </CharString>
        <CharString name="braceleft">
          -114 198 682 rmoveto
          22 8 8 24 vhcurveto
          45 71 -82 hlineto
          -67 -19 -37 -53 hvcurveto
          -238 vlineto
          -76 -25 -34 -58 vhcurveto
          -17 -70 17 hlineto
          58 25 -34 -74 hvcurveto
          -241 vlineto
          -54 19 -36 67 vhcurveto
          82 71 -45 hlineto
          -24 -8 8 23 hvcurveto
          254 vlineto
          69 -26 43 -50 6 vhcurveto
          49 7 27 42 72 vvcurveto
          endchar
        </CharString>
        <CharString name="braceright">
          -114 84 431 rmoveto
          -72 26 -42 50 -7 vhcurveto
          -50 -6 -26 -43 -69 vvcurveto
          -254 vlineto
          -23 -8 -8 -24 vhcurveto
          -45 -71 82 hlineto
          67 18 36 54 hvcurveto
          241 vlineto
          74 25 34 59 vhcurveto
          16 70 -16 hlineto
          -59 -25 34 76 hvcurveto
          238 vlineto
          53 -18 37 -67 vhcurveto
          -82 -71 45 hlineto
          24 8 -8 -22 hvcurveto
          endchar
        </CharString>
        <CharString name="bracketleft">
          -86 249 710 rmoveto
          73 -191 -948 191 73 -100 802 vlineto
          endchar
        </CharString>
        <CharString name="bracketright">
          -86 234 783 rmoveto
          -190 -73 99 -802 -99 -73 190 hlineto
          endchar
        </CharString>
        <CharString name="breve">
          24 271 651 rmoveto
          78 callgsubr
          101 hlineto
          65 29 31 58 hvcurveto
          43 vlineto
          endchar
        </CharString>
        <CharString name="brokenbar">
          -200 52 250 rmoveto
          -347 91 347 vlineto
          125 vmoveto
          347 -91 -347 vlineto
          endchar
        </CharString>
        <CharString name="bullet">
          -1 67 321 rmoveto
          -72 59 -59 72 72 59 59 72 72 -59 59 -72 -72 -59 -59 -72 vhcurveto
          endchar
        </CharString>
        <CharString name="c">
          -46 320 334 rmoveto
          434 callgsubr
          -95 hlineto
          7 callgsubr
          vlineto
          endchar
        </CharString>
        <CharString name="cacute">
          -46 321 651 59 callgsubr
          -85 -31 rmoveto
          7 callgsubr
          89 434 callgsubr
          endchar
        </CharString>
        <CharString name="caron">
          24 160 519 rmoveto
          101 hlineto
          95 132 rlineto
          -93 hlineto
          -53 -81 -52 81 rlineto
          -94 hlineto
          endchar
        </CharString>
        <CharString name="ccaron">
          -46 230 519 -1 callsubr
          2 -31 rmoveto
          7 callgsubr
          89 434 callgsubr
          endchar
        </CharString>
        <CharString name="ccedilla">
          -46 140 225 callsubr
          180 384 rmoveto
          434 callgsubr
          -95 hlineto
          7 callgsubr
          vlineto
          endchar
        </CharString>
        <CharString name="cedilla">
          24 206 225 callsubr
          endchar
        </CharString>
        <CharString name="cent">
          -46 320 334 rmoveto
          434 callgsubr
          -1 77 -86 -77 -8 hlineto
          16 callgsubr
          8 -76 86 76 1 hlineto
          132 callgsubr
          66 -89 -52 15 callgsubr
          -43 170 callsubr
          43 -93 callsubr
          -52 vlineto
          endchar
        </CharString>
        <CharString name="circumflex">
          24 64 519 244 callsubr
        </CharString>
        <CharString name="colon">
          -232 32 70 rmoveto
          368 callgsubr
          102 vmoveto
          368 callgsubr
          endchar
        </CharString>
        <CharString name="comma">
          262 callgsubr
          endchar
        </CharString>
        <CharString name="copyright">
          304 670 341 rmoveto
          184 -61 101 -156 vhcurveto
          -191 hlineto
          -156 -61 -101 -184 hvcurveto
          -63 vlineto
          -184 61 -94 156 vhcurveto
          191 hlineto
          156 61 94 184 hvcurveto
          -400 -210 rmoveto
          -110 -35 79 126 hvcurveto
          73 vlineto
          126 35 88 110 vhcurveto
          175 hlineto
          110 35 -88 -126 hvcurveto
          -73 vlineto
          -126 -35 -79 -110 vhcurveto
          -38 176 rmoveto
          -22 -5 -5 -23 vhcurveto
          -43 hlineto
          -23 -5 5 22 hvcurveto
          148 vlineto
          23 5 5 23 vhcurveto
          43 hlineto
          23 5 -5 -23 hvcurveto
          -25 80 38 vlineto
          53 -27 28 -57 vhcurveto
          -90 hlineto
          -58 -26 -28 -53 hvcurveto
          -174 vlineto
          -52 26 -28 58 vhcurveto
          90 hlineto
          57 27 28 52 hvcurveto
          39 -80 vlineto
          endchar
        </CharString>
        <CharString name="currency">
          87 222 176 rmoveto
          -31 -9 6 34 hvcurveto
          165 vlineto
          35 9 6 31 vhcurveto
          52 hlineto
          32 9 -6 -35 hvcurveto
          -165 vlineto
          -34 -9 -6 -32 vhcurveto
          123 214 rmoveto
          21 -3 17 -6 14 vhcurveto
          44 44 -58 58 -54 -54 rlineto
          1 -7 -8 0 -8 hhcurveto
          -97 hlineto
          -11 -9 -1 -1 -9 hvcurveto
          -55 55 -58 -58 49 -49 rlineto
          -5 -13 -2 -16 -18 vvcurveto
          -182 vlineto
          -16 2 -15 3 -12 vhcurveto
          -47 -47 58 -58 49 49 rlineto
          -2 11 11 -1 13 hhcurveto
          97 hlineto
          10 10 1 1 9 hvcurveto
          48 -48 58 58 -42 42 rlineto
          5 13 2 16 19 vvcurveto
          endchar
        </CharString>
        <CharString name="d">
          -37 233 callgsubr
          596 rmoveto
          -219 vlineto
          233 callsubr
          vlineto
          endchar
        </CharString>
        <CharString name="dagger">
          -35 356 465 rmoveto
          417 callsubr
          -504 90 504 130 hlineto
          endchar
        </CharString>
        <CharString name="daggerdbl">
          -13 367 394 rmoveto
          71 417 callsubr
          -315 -130 -70 130 -162 90 162 130 70 -130 315 vlineto
          endchar
        </CharString>
        <CharString name="danda">
          -55 441 callgsubr
          endchar
        </CharString>
        <CharString name="dcaron">
          -8 233 callgsubr
          377 rmoveto
          233 callsubr
          -90 vlineto
          134 hmoveto
          -171 29 vlineto
          44 124 rlineto
          47 vlineto
          endchar
        </CharString>
        <CharString name="dcroat">
          -32 163 73 -55 callsubr
          169 534 rmoveto
          -46 62 -90 -62 -80 -62 80 -96 hlineto
          40 callsubr
          545 46 vlineto
          endchar
        </CharString>
        <CharString name="degree">
          -14 324 539 rmoveto
          57 -27 30 -64 vhcurveto
          -88 hlineto
          -64 -27 -30 -57 hvcurveto
          -110 vlineto
          -56 27 -30 64 vhcurveto
          88 hlineto
          64 27 30 56 hvcurveto
          -84 8 rmoveto
          -23 -5 -5 -25 vhcurveto
          -42 212 callsubr
          95 vlineto
          22 6 6 24 vhcurveto
          42 hlineto
          25 5 -6 -22 hvcurveto
          endchar
        </CharString>
        <CharString name="dieresis">
          24 65 541 236 callsubr
          endchar
        </CharString>
        <CharString name="divide">
          15 25 276 rmoveto
          362 74 -362 hlineto
          136 151 rmoveto
          -88 90 88 vlineto
          -90 -289 rmoveto
          -87 90 87 vlineto
          endchar
        </CharString>
        <CharString name="dollar">
          -36 159 356 330 callsubr
          139 -80 callsubr
          42 hlineto
          24 6 312 callgsubr
          -28 31 -65 vhcurveto
          -5 77 -86 -77 -7 145 callsubr
          -165 vlineto
          -57 27 -32 64 vhcurveto
          74 32 callsubr
          -153 vlineto
          96 callsubr
          5 -77 86 77 6 hlineto
          132 callgsubr
          180 vlineto
          57 -28 31 -64 vhcurveto
          endchar
        </CharString>
        <CharString name="dotaccent">
          24 157 537 rmoveto
          107 96 -107 hlineto
          endchar
        </CharString>
        <CharString name="dotlessi">
          159 callgsubr
          endchar
        </CharString>
        <CharString name="dottedcircle">
          263 139 517 rmoveto
          -26 18 -19 26 26 18 19 26 25 -18 19 -26 -26 -18 -19 -25 vhcurveto
          -82 -110 rmoveto
          -25 20 -19 26 24 20 19 25 25 -20 19 -24 -26 -20 -19 -25 vhcurveto
          -13 -126 rmoveto
          -25 19 -18 25 26 18 18 440 callgsubr
          52 -116 rmoveto
          -26 18 -18 26 25 19 18 26 25 -19 19 -25 -26 -18 -19 -25 vhcurveto
          101 -75 rmoveto
          -26 19 -20 26 25 19 20 26 24 -19 20 -25 -26 -19 -20 -24 vhcurveto
          127 -16 rmoveto
          -26 18 -18 26 26 19 18 26 26 -19 18 -26 -26 -18 -18 -26 vhcurveto
          121 53 rmoveto
          -26 19 -18 25 25 20 18 26 25 -20 19 -25 -25 -19 -19 -25 vhcurveto
          73 98 rmoveto
          -25 19 -19 26 24 19 19 25 26 -19 19 -24 -26 -19 -19 -26 vhcurveto
          10 134 rmoveto
          -26 18 -18 26 25 19 18 26 26 -19 18 -25 -26 -18 -18 -26 vhcurveto
          -50 118 rmoveto
          -25 19 -19 25 26 18 19 440 callgsubr
          -95 68 rmoveto
          -24 19 -20 26 25 18 20 24 26 -18 19 -25 -26 -19 -19 -26 vhcurveto
          -126 15 rmoveto
          -26 18 -18 26 26 18 18 26 26 -18 18 -26 -26 -18 -18 -26 vhcurveto
          endchar
        </CharString>
        <CharString name="doubledanda">
          126 441 callgsubr
          181 688 rmoveto
          -86 -688 86 hlineto
          endchar
        </CharString>
        <CharString name="dvA">
          151 568 626 rmoveto
          -161 -94 callgsubr
          72 vlineto
          endchar
        </CharString>
        <CharString name="dvAA">
          346 762 626 rmoveto
          -355 -94 callgsubr
          105 -556 231 callsubr
        </CharString>
        <CharString name="dvAI">
          8 425 626 rmoveto
          -73 167 callgsubr
          -279 37 callsubr
        </CharString>
        <CharString name="dvAU">
          346 762 626 rmoveto
          -74 hlineto
          -39 193 307 callgsubr
          -114 hlineto
          135 -125 41 -37 27 -20 15 -11 rlinecurve
          -183 -94 callgsubr
          105 -556 231 callsubr
        </CharString>
        <CharString name="dvAbbreviationsign">
          -35 58 308 rmoveto
          -84 48 -47 75 74 49 47 84 84 -49 47 -74 -75 -48 -47 -84 vhcurveto
          74 hmoveto
          45 16 21 33 32 17 -21 -45 -45 -18 -21 -31 -32 -17 21 45 vhcurveto
          endchar
        </CharString>
        <CharString name="dvAcandra">
          92 568 626 rmoveto
          -161 -94 callgsubr
          72 vlineto
          -36 255 110 callsubr
        </CharString>
        <CharString name="dvAnusvara">
          -397 -141 822 346 callgsubr
        </CharString>
        <CharString name="dvAnusvara.amI">
          -397 22 752 445 callgsubr
        </CharString>
        <CharString name="dvAvagraha">
          -29 304 558 rmoveto
          68 -156 vlineto
          151 callgsubr
          -150 389 callgsubr
          55 222 callgsubr
          -23 hvcurveto
          -181 -38 callsubr
          -39 161 callgsubr
          67 -90 -79 vlineto
          -9 callsubr
          171 callgsubr
          205 vlineto
          57 -27 28 -65 vhcurveto
          -54 422 callsubr
          126 418 callsubr
        </CharString>
        <CharString name="dvB">
          -166 316 626 rmoveto
          -336 -70 336 hlineto
          -180 -478 rmoveto
          180 59 hlineto
          0 -53 110 -27 46 vhcurveto
          -69 121 rlineto
          75 68 -104 219 callgsubr
          100 vmoveto
          204 vlineto
          5 -7 18 -38 30 -56 75 -133 rcurveline
          -99 -75 callgsubr
          endchar
        </CharString>
        <CharString name="dvBA">
          28 165 148 -66 callsubr
          -3 -4 0 -5 hhcurveto
          191 478 rmoveto
          -465 -70 302 -231 hlineto
          163 callsubr
        </CharString>
        <CharString name="dvBH">
          -10 250 callgsubr
          132 -60 callsubr
          72 hlineto
          248 70 rmoveto
          -158 131 -48 callsubr
          -119 -99 vlineto
          -32 callgsubr
          -157 25 callsubr
          172 158 vlineto
          endchar
        </CharString>
        <CharString name="dvBHA">
          175 235 178 57 callgsubr
        </CharString>
        <CharString name="dvBH_LA">
          523 250 callgsubr
          133 316 callgsubr
          703 287 rmoveto
          -563 -70 406 -74 -83 hlineto
          -66 callgsubr
          -54 -30 -22 -50 -5 hvcurveto
          -98 130 -48 callsubr
          -118 318 callgsubr
          -158 25 callsubr
          172 97 -254 108 callgsubr
          24 5 -6 -24 hvcurveto
          -191 90 191 423 callsubr
          59 -412 91 556 66 hlineto
          endchar
        </CharString>
        <CharString name="dvBH_NA">
          502 585 292 callgsubr
          -350 -234 35 callsubr
          128 -60 callsubr
          72 hlineto
          684 291 rmoveto
          -510 -70 348 -74 -257 hlineto
          -61 -27 -25 -52 -3 hvcurveto
          -84 135 -48 callsubr
          -123 318 callgsubr
          -153 25 callsubr
          168 84 -168 vlineto
          -61 29 -28 67 vhcurveto
          164 callgsubr
        </CharString>
        <CharString name="dvBH_R">
          43 255 -56 rmoveto
          205 223 rlineto
          106 vlineto
          -306 -329 rlineto
          81 289 322 callgsubr
          90 71 rmoveto
          129 vlineto
          -45 callsubr
          -117 318 callgsubr
          -104 25 callsubr
          118 135 71 vlineto
          endchar
        </CharString>
        <CharString name="dvBH_RA">
          175 235 233 322 callgsubr
          357 286 rmoveto
          -162 -215 -105 129 -48 callsubr
          -117 318 callgsubr
          -104 25 callsubr
          118 105 -98 vlineto
          -276 -298 rlineto
          101 hlineto
          175 191 rlineto
          -135 115 callsubr
        </CharString>
        <CharString name="dvBH_R_YA">
          467 722 -19 callsubr
          161 -15 callsubr
          99 64 callgsubr
          -487 -323 405 callgsubr
          78 316 callgsubr
          649 287 rmoveto
          -509 -70 131 hlineto
          436 callsubr
          -85 419 callsubr
          -195 130 -48 callsubr
          -118 318 callgsubr
          -103 25 callsubr
          117 105 -99 vlineto
          -276 -296 rlineto
          101 hlineto
          179 191 rlineto
          -39 10 31 -18 52 101 callgsubr
        </CharString>
        <CharString name="dvBH_VA">
          356 250 callgsubr
          133 316 callgsubr
          538 287 rmoveto
          -398 -70 236 67 callgsubr
          -57 hlineto
          -60 -28 -23 -49 -4 hvcurveto
          -97 130 -48 callsubr
          -118 318 callgsubr
          -158 25 callsubr
          172 97 -172 vlineto
          -61 -30 callgsubr
          414 callsubr
          72 vlineto
          endchar
        </CharString>
        <CharString name="dvBH_YA">
          446 700 182 -6 callsubr
        </CharString>
        <CharString name="dvB_BA">
          268 406 273 callsubr
          -326 hmoveto
          -61 callsubr
          -4 -4 0 -4 hhcurveto
          427 478 rmoveto
          -705 -70 543 -231 hlineto
          130 callgsubr
          -105 174 callsubr
          17 6 15 10 hvcurveto
          -14 15 22 -7 29 hhcurveto
          114 290 callsubr
        </CharString>
        <CharString name="dvB_BHA">
          418 281 callsubr
          231 295 callgsubr
          -308 -191 -66 callsubr
          -4 -4 0 -4 hhcurveto
          577 478 rmoveto
          -162 -217 -106 131 314 callsubr
          -64 137 callgsubr
          5 5 24 vhcurveto
          34 86 callgsubr
          -119 -99 vlineto
          -32 callgsubr
          -52 vlineto
          169 callgsubr
          88 -79 callsubr
          172 106 -339 -100 callsubr
        </CharString>
        <CharString name="dvB_BH_RA">
          414 281 callsubr
          227 -323 322 callsubr
          -308 -192 -66 callsubr
          -3 -4 0 -5 hhcurveto
          577 478 rmoveto
          -162 -215 -106 129 50 callsubr
          -117 -99 vlineto
          -64 -28 -28 -57 hvcurveto
          -54 vlineto
          -50 6 -25 0 vhcurveto
          0 -25 50 -27 46 vhcurveto
          -69 121 rlineto
          75 68 -104 219 callgsubr
          131 hlineto
          46 27 20 37 11 hvcurveto
          -1 9 9 -1 10 hhcurveto
          88 -79 callsubr
          118 106 -98 95 callgsubr
        </CharString>
        <CharString name="dvB_DA">
          204 159 273 callsubr
          301 264 rmoveto
          144 72 70 -641 -70 479 -74 -91 vlineto
          -32 callgsubr
          -72 349 callsubr
          -105 hlineto
          -64 -28 14 callsubr
          117 hlineto
          27 18 353 callgsubr
          32 hhcurveto
          56 355 callgsubr
          91 271 -91 437 callgsubr
          -23 vhcurveto
          -37 135 callgsubr
          endchar
        </CharString>
        <CharString name="dvB_DHA">
          300 281 callsubr
          -77 -408 -66 callsubr
          -4 -4 0 -4 hhcurveto
          461 478 rmoveto
          -163 -444 hlineto
          -25 callgsubr
          264 callgsubr
          vlineto
          -25 -3 -15 -15 -30 vvcurveto
          -22 107 callsubr
          28 17 353 callgsubr
          33 hhcurveto
          138 -15 callgsubr
          72 vlineto
          endchar
        </CharString>
        <CharString name="dvB_DH_VA">
          490 281 callsubr
          -77 -408 -66 callsubr
          -4 -4 0 -4 hhcurveto
          649 478 rmoveto
          -364 -70 202 266 callgsubr
          -28 39 callgsubr
          -215 vlineto
          -25 callgsubr
          264 callgsubr
          vlineto
          -25 -3 -15 -15 -30 vvcurveto
          -22 107 callsubr
          28 17 353 callgsubr
          33 hhcurveto
          143 hlineto
          27 17 6 14 10 192 callgsubr
        </CharString>
        <CharString name="dvB_JA">
          371 159 360 callgsubr
          72 -129 rcurveline
          -3 -4 -6 -1 -9 hhcurveto
          556 478 rmoveto
          -812 -70 650 -74 -174 -304 101 callsubr
          245 83 -412 -100 callsubr
        </CharString>
        <CharString name="dvB_JHA">
          407 678 320 rmoveto
          -265 -88 callsubr
          36 -80 callsubr
          155 142 110 hlineto
          -517 -424 rmoveto
          12 callsubr
          24 hvcurveto
          216 vlineto
          2 -7 15 -36 33 -62 72 -136 rcurveline
          -3 -4 -6 -1 -9 hhcurveto
          605 494 rmoveto
          -860 -70 498 -74 -93 hlineto
          -65 381 callgsubr
          65 vhcurveto
          74 86 callgsubr
          -64 -38 callsubr
          -74 94 -90 -71 hlineto
          -132 261 rlineto
          71 68 -102 334 callsubr
          -62 hvcurveto
          -242 vlineto
          -62 335 callgsubr
          118 hlineto
          20 15 5 9 10 hvcurveto
          -89 90 75 101 vlineto
          122 callgsubr
          102 -252 300 callsubr
        </CharString>
        <CharString name="dvB_J_YA">
          658 922 -41 callsubr
          164 388 callgsubr
          96 98 callsubr
          -763 -408 208 callsubr
          72 -129 rcurveline
          -3 -4 -6 -1 -9 hhcurveto
          848 478 rmoveto
          -1104 -70 725 hlineto
          41 264 callsubr
          -82 -38 callsubr
          -264 -234 101 callsubr
          175 83 -175 23 callsubr
        </CharString>
        <CharString name="dvB_JxA">
          386 389 -95 9 callgsubr
          -220 148 -66 callsubr
          -3 -4 0 -5 hhcurveto
          545 410 callsubr
          -74 -174 -304 hlineto
          86 callsubr
          -91 -200 vlineto
          -64 6 -21 -36 callsubr
          117 hlineto
          26 18 6 14 10 hvcurveto
          -14 15 21 -6 29 hhcurveto
          85 421 callsubr
          245 83 -412 -100 callsubr
        </CharString>
        <CharString name="dvB_LA">
          385 169 148 -66 callsubr
          -3 -4 0 -5 hhcurveto
          544 478 rmoveto
          -822 -70 666 -74 -84 hlineto
          -30 -15 -14 -25 -3 hvcurveto
          -2 hlineto
          25 -3 -15 14 -31 hhcurveto
          -87 334 callsubr
          -62 hvcurveto
          -68 vlineto
          -89 6 -39 143 callsubr
          281 vlineto
          25 -34 callsubr
          31 hlineto
          25 5 -6 -24 hvcurveto
          -197 90 197 17 callsubr
          60 -412 90 556 66 hlineto
          endchar
        </CharString>
        <CharString name="dvB_L_YA">
          683 938 -33 callsubr
          -139 -75 callgsubr
          172 -15 callsubr
          88 98 callsubr
          -769 -408 -66 callsubr
          -3 -4 0 -5 hhcurveto
          842 478 rmoveto
          -1120 -70 741 hlineto
          40 4 -5 -28 hvcurveto
          -74 240 callsubr
          -173 hlineto
          -30 -15 -15 -24 -3 hvcurveto
          -2 hlineto
          24 -3 -15 15 -31 hhcurveto
          -87 hlineto
          -60 -30 -28 -61 hvcurveto
          -13 vlineto
          -80 6 -42 143 callsubr
          220 -78 callsubr
          31 hlineto
          25 5 -6 -23 hvcurveto
          -168 90 168 356 callgsubr
          60 -183 hlineto
          23 callgsubr
        </CharString>
        <CharString name="dvB_NA">
          380 463 178 121 callgsubr
          -294 -264 -66 callsubr
          -4 -4 0 -4 hhcurveto
          539 478 rmoveto
          -817 -70 655 -74 -257 174 callsubr
          18 353 callgsubr
          33 hhcurveto
          164 callgsubr
        </CharString>
        <CharString name="dvB_R">
          -103 -20 626 rmoveto
          -70 332 70 vlineto
          -176 -448 rmoveto
          204 vlineto
          5 -7 18 -38 30 -56 75 -133 rcurveline
          -99 -75 callgsubr
          -90 219 rmoveto
          103 callgsubr
          80 hlineto
          -102 -130 rlineto
          99 hlineto
          99 131 rlineto
          64 vlineto
          -7 6 -42 98 -27 46 -69 121 rcurveline
          383 callgsubr
          endchar
        </CharString>
        <CharString name="dvB_RA">
          28 165 172 293 callgsubr
          203 454 rmoveto
          -465 -70 302 398 callsubr
          -69 109 441 callsubr
          -206 274 callsubr
        </CharString>
        <CharString name="dvB_SA">
          395 651 348 rmoveto
          -103 hlineto
          -101 callsubr
          96 hlineto
          -482 -408 -66 callsubr
          -3 -4 0 -5 hhcurveto
          554 478 rmoveto
          -832 -70 461 hlineto
          -78 callgsubr
          -64 103 -91 -126 hlineto
          165 callsubr
          171 callgsubr
          121 -90 -109 -38 callsubr
          -37 -9 callgsubr
          181 274 182 callsubr
        </CharString>
        <CharString name="dvB_SHA">
          396 254 626 rmoveto
          -274 -70 274 hlineto
          -77 -408 rmoveto
          -24 -5 -59 callsubr
          -3 -4 0 -5 hhcurveto
          122 480 248 callgsubr
          23 415 callsubr
          -64 50 -91 -56 hlineto
          130 callgsubr
          -105 hlineto
          -64 29 callsubr
          113 hlineto
          15 10 2 6 8 hvcurveto
          -1 125 callgsubr
        </CharString>
        <CharString name="dvB_TA">
          236 169 148 -66 callsubr
          -3 -4 0 -5 hhcurveto
          403 478 rmoveto
          -681 -70 519 -74 -121 -20 callsubr
          -72 vlineto
          165 callsubr
          57 73 -29 -42 callgsubr
          23 hvcurveto
          282 -78 callsubr
          93 195 callsubr
          hlineto
          endchar
        </CharString>
        <CharString name="dvB_VA">
          220 169 148 -66 callsubr
          -3 -4 0 -5 hhcurveto
          379 478 rmoveto
          -657 -70 495 69 callgsubr
          -115 vlineto
          -64 6 -21 -36 callsubr
          117 hlineto
          26 18 6 14 10 hvcurveto
          -14 15 21 -6 245 callgsubr
        </CharString>
        <CharString name="dvB_YA">
          323 578 218 callgsubr
          -409 -408 -66 callsubr
          -4 -4 0 -4 hhcurveto
          482 478 rmoveto
          -760 -70 382 135 callsubr
          -90 -106 hlineto
          169 callgsubr
          160 -15 callgsubr
          71 vlineto
          endchar
        </CharString>
        <CharString name="dvC">
          -181 153 382 rmoveto
          -3 callsubr
          23 vhcurveto
          38 70 -219 -70 73 hlineto
          -7 -6 -4 -10 -16 211 callgsubr
          158 70 -129 -75 callgsubr
          -173 448 rmoveto
          -70 331 70 vlineto
          endchar
        </CharString>
        <CharString name="dvCA">
          13 430 626 116 callgsubr
        </CharString>
        <CharString name="dvCH">
          146 563 626 rmoveto
          -583 -70 78 hlineto
          72 callsubr
          253 hlineto
          65 32 -46 callgsubr
          308 vlineto
          60 -31 25 -62 vhcurveto
          -57 hlineto
          -61 -31 -25 -60 hvcurveto
          -132 -96 callsubr
          374 hlineto
          endchar
        </CharString>
        <CharString name="dvCHA">
          146 335 482 12 callgsubr
        </CharString>
        <CharString name="dvCH_R">
          -397 endchar
        </CharString>
        <CharString name="dvCH_RA">
          146 335 -10 callgsubr
          228 hmoveto
          70 -583 -70 78 vlineto
          72 callsubr
          60 hlineto
          111 callsubr
          141 rlineto
          53 hlineto
          65 32 268 callgsubr
        </CharString>
        <CharString name="dvCH_R_YA">
          -2 callsubr
          57 hlineto
          111 callsubr
          141 rlineto
          56 hlineto
          65 32 -46 callgsubr
          311 vlineto
          6 0 5 -1 5 vhcurveto
          169 -93 callsubr
          -66 240 callsubr
          -89 -126 hlineto
          23 callgsubr
        </CharString>
        <CharString name="dvCH_YA">
          -2 callsubr
          253 hlineto
          65 32 -46 callgsubr
          311 vlineto
          6 0 5 -1 5 vhcurveto
          169 -93 callsubr
          -66 240 callsubr
          -89 -126 hlineto
          23 callgsubr
        </CharString>
        <CharString name="dvC_CA">
          218 635 626 rmoveto
          -655 -70 493 -376 hlineto
          -24 -8 -8 -23 vhcurveto
          -54 397 callsubr
          35 70 -185 -70 39 342 callgsubr
          -198 vlineto
          347 callgsubr
          -53 397 callsubr
          8 70 -191 -70 72 hlineto
          -6 -6 -4 -11 -15 211 callgsubr
          84 hlineto
          28 18 6 13 11 447 callgsubr
          -6 28 hhcurveto
          78 291 callgsubr
        </CharString>
        <CharString name="dvC_CHA">
          364 553 62 callsubr
          -801 -70 297 vlineto
          -5 36 callgsubr
          -78 325 callgsubr
          34 70 -215 -70 73 hlineto
          -7 -6 -4 -10 -16 211 callgsubr
          74 hlineto
          18 13 3 5 11 hvcurveto
          -59 1 31 -27 64 hhcurveto
          254 hlineto
          65 31 268 callgsubr
        </CharString>
        <CharString name="dvC_CH_VA">
          362 551 -10 callgsubr
          -97 -655 rmoveto
          -22 -5 430 callgsubr
          106 -69 hlineto
          -23 -8 -7 -21 vhcurveto
          255 655 rmoveto
          70 -799 -70 294 vlineto
          79 callsubr
          -78 325 callgsubr
          34 70 -214 -70 71 hlineto
          -6 -6 -4 -10 -16 211 callgsubr
          74 hlineto
          18 13 3 5 11 hvcurveto
          1 -56 28 -27 59 -3 rrcurveto
          -5 -6 -3 -8 -13 vvcurveto
          -56 vlineto
          -54 28 -30 58 vhcurveto
          86 hlineto
          16 11 3 8 7 hvcurveto
          -75 79 232 vlineto
          54 4 27 28 56 vvcurveto
          250 callsubr
        </CharString>
        <CharString name="dvC_MA">
          400 655 247 callgsubr
          23 vhcurveto
          75 hlineto
          358 264 rmoveto
          -837 -70 479 -124 -98 hlineto
          94 callsubr
          -165 vlineto
          77 callsubr
          31 20 365 callgsubr
          337 callsubr
        </CharString>
        <CharString name="dvC_NA">
          362 445 178 184 callgsubr
          334 214 rmoveto
          -799 -70 637 -74 -256 -20 callsubr
          -215 vlineto
          77 callsubr
          31 20 365 callgsubr
          74 -79 callsubr
          245 82 -412 115 callsubr
        </CharString>
        <CharString name="dvC_R">
          -140 153 382 rmoveto
          230 callsubr
          117 181 rlineto
          47 -95 vlineto
          -70 callgsubr
          -173 420 rmoveto
          -70 297 70 vlineto
          endchar
        </CharString>
        <CharString name="dvC_RA">
          17 430 626 rmoveto
          -450 -70 288 -348 hlineto
          -24 -8 -8 -24 vhcurveto
          -54 -75 callgsubr
          176 vlineto
          230 callsubr
          108 436 callgsubr
          -100 callsubr
        </CharString>
        <CharString name="dvC_YA">
          306 561 182 -25 callsubr
          152 callgsubr
          -743 -70 364 234 callsubr
          77 callsubr
          32 19 9 17 11 hvcurveto
          -18 15 26 -8 35 hhcurveto
          160 -76 callsubr
        </CharString>
        <CharString name="dvCandrabindu">
          -397 -250 811 rmoveto
          111 callgsubr
          -79 -47 vlineto
          -24 -6 130 callsubr
          vlineto
          34 46 rmoveto
          -82 79 82 vlineto
          endchar
        </CharString>
        <CharString name="dvD">
          0 237 hmoveto
          90 271 -90 -91 hlineto
          52 callsubr
          153 227 callsubr
          -20 callsubr
          -230 vlineto
          -61 29 -28 67 vhcurveto
          56 hlineto
          17 -63 callsubr
          86 -150 300 callgsubr
        </CharString>
        <CharString name="dvDA">
          -23 322 412 rmoveto
          144 72 70 -417 -70 255 -74 -91 vlineto
          -65 -27 -27 -58 hvcurveto
          -230 -29 callgsubr
        </CharString>
        <CharString name="dvDA_mvR">
          246 callsubr
          56 hlineto
          17 -63 callsubr
          -88 -4 vlineto
          -64 -26 -28 -57 hvcurveto
          -62 vlineto
          -9 callsubr
          137 71 -109 212 callsubr
          36 329 callsubr
          64 339 -90 -91 hlineto
          52 callsubr
          endchar
        </CharString>
        <CharString name="dvDD">
          -21 134 -61 97 callsubr
          -249 687 rmoveto
          -70 237 -74 -71 vlineto
          -64 -27 -27 -58 hvcurveto
          -92 callsubr
          133 142 89 70 hlineto
          endchar
        </CharString>
        <CharString name="dvDDA">
          -21 307 287 callgsubr
          89 70 -416 -70 237 -74 -71 vlineto
          -64 -27 -27 -58 hvcurveto
          -92 callsubr
          endchar
        </CharString>
        <CharString name="dvDDH">
          9 143 -61 97 callsubr
          79 473 rmoveto
          144 109 70 -446 -70 247 -74 -83 vlineto
          -43 callgsubr
          endchar
        </CharString>
        <CharString name="dvDDHA">
          9 317 320 callgsubr
          109 70 -446 -70 247 -74 -83 vlineto
          -43 callgsubr
          endchar
        </CharString>
        <CharString name="dvDDH_DDHA">
          9 317 320 callgsubr
          109 70 -446 431 callgsubr
          -201 vlineto
          -32 14 -17 194 callsubr
          -2 -14 -16 -31 vvcurveto
          -178 vlineto
          -61 29 -28 67 vhcurveto
          131 -79 callsubr
          39 93 callsubr
          -87 -70 63 -93 callsubr
          -18 391 callsubr
          -83 -80 callgsubr
          166 -60 callsubr
          108 -79 callsubr
          201 callsubr
        </CharString>
        <CharString name="dvDDH_R">
          9 154 -156 97 callsubr
          68 568 61 callsubr
        </CharString>
        <CharString name="dvDDH_RA">
          9 317 412 61 callsubr
        </CharString>
        <CharString name="dvDDH_VA">
          10 256 121 rmoveto
          -99 vlineto
          -24 -8 -7 -21 vhcurveto
          -42 hlineto
          -22 -6 5 23 hvcurveto
          102 vlineto
          160 291 rmoveto
          144 110 70 -447 431 callgsubr
          -191 vlineto
          -25 5 -20 12 -14 vhcurveto
          -141 vlineto
          -52 26 -31 65 vhcurveto
          61 hlineto
          16 10 3 7 7 hvcurveto
          -66 90 269 vlineto
          21 14 10 25 35 vvcurveto
          201 callsubr
        </CharString>
        <CharString name="dvDDH_YA">
          456 711 374 callgsubr
          76 388 callgsubr
          57 vlineto
          57 -26 30 -64 vhcurveto
          -219 75 394 hlineto
          152 callgsubr
          -893 368 callsubr
          hlineto
          -43 callgsubr
          336 -93 callsubr
          345 callgsubr
          -89 -153 307 callsubr
        </CharString>
        <CharString name="dvDDHxA">
          9 164 -148 9 callgsubr
          153 465 rmoveto
          144 109 70 -446 -70 247 -74 -83 vlineto
          -43 callgsubr
          endchar
        </CharString>
        <CharString name="dvDD_DDA">
          105 callgsubr
          -37 vlineto
          -53 25 -27 64 vhcurveto
          114 181 callgsubr
          -24 vlineto
          -23 -5 -6 -24 vhcurveto
          -85 161 callgsubr
          12 -90 -24 vlineto
          -9 callsubr
          139 127 callsubr
          48 vlineto
          57 -27 28 -64 vhcurveto
          -111 212 callsubr
          20 215 callgsubr
        </CharString>
        <CharString name="dvDD_DDHA">
          105 callgsubr
          -178 vlineto
          -61 29 -28 67 vhcurveto
          131 421 callsubr
          43 vlineto
          62 -29 27 -68 vhcurveto
          -87 -70 64 222 callgsubr
          -25 hvcurveto
          -21 vlineto
          -25 -6 -5 -23 vhcurveto
          -84 -80 callgsubr
          166 215 callgsubr
        </CharString>
        <CharString name="dvDD_R">
          -21 134 -156 97 callsubr
          -249 782 rmoveto
          -21 callsubr
          133 142 89 70 hlineto
          endchar
        </CharString>
        <CharString name="dvDD_RA">
          -21 307 287 callgsubr
          89 70 -416 -21 callsubr
          endchar
        </CharString>
        <CharString name="dvDD_VA">
          -8 258 56 rmoveto
          -23 -7 -7 -21 vhcurveto
          -71 hlineto
          -22 -5 5 22 hvcurveto
          37 -78 callsubr
          62 hlineto
          14 12 2 3 9 hvcurveto
          73 290 rmoveto
          142 78 70 -429 -70 261 -74 -96 vlineto
          -32 callgsubr
          -35 vlineto
          -9 callsubr
          84 hlineto
          24 5 -5 -19 hvcurveto
          -41 vlineto
          -19 -5 callsubr
          -69 hlineto
          -23 -5 5 23 hvcurveto
          18 -91 -41 vlineto
          -30 15 -16 194 callsubr
          -3 -15 -15 -30 vvcurveto
          -53 vlineto
          -52 27 -31 64 vhcurveto
          93 hlineto
          16 11 3 7 6 hvcurveto
          -74 91 367 vlineto
          57 -27 28 -65 vhcurveto
          -85 hlineto
          -23 -6 5 19 hvcurveto
          15 375 callgsubr
        </CharString>
        <CharString name="dvDD_YA">
          420 674 180 219 callsubr
          76 -15 callsubr
          57 355 callsubr
          -192 73 367 hlineto
          163 70 rmoveto
          -857 -70 237 -74 -71 hlineto
          -64 -27 -27 -58 hvcurveto
          -92 callsubr
          298 32 callsubr
          -38 -14 callgsubr
          -89 -153 hlineto
          -61 142 callsubr
          160 hlineto
          16 -63 callsubr
          -87 91 vlineto
          -1 556 rlineto
          73 hlineto
          endchar
        </CharString>
        <CharString name="dvDDxA">
          -21 138 -151 9 callgsubr
          169 470 rmoveto
          142 89 70 -416 -70 237 -74 -71 vlineto
          -64 -27 -27 -58 hvcurveto
          -92 callsubr
          endchar
        </CharString>
        <CharString name="dvDH">
          -48 158 409 rmoveto
          41 callgsubr
          -154 120 callsubr
          292 70 -262 -87 callsubr
          101 vlineto
          25 -34 callsubr
          68 70 -68 -87 callsubr
          endchar
        </CharString>
        <CharString name="dvDHA">
          81 499 626 rmoveto
          -162 -444 75 callgsubr
          145 -37 callsubr
        </CharString>
        <CharString name="dvDH_MA">
          475 730 408 rmoveto
          -112 148 112 hlineto
          -202 259 callsubr
          -24 vhcurveto
          -44 hlineto
          -24 399 callgsubr
          364 288 rmoveto
          -555 -70 191 -148 -99 -20 callsubr
          -141 vlineto
          -51 callsubr
          23 13 6 15 6 hvcurveto
          -14 16 24 -7 33 hhcurveto
          88 -79 callsubr
          171 112 -338 -100 callsubr
        </CharString>
        <CharString name="dvDH_NA">
          431 514 178 121 callgsubr
          334 214 rmoveto
          -511 -70 349 327 callsubr
          -215 vlineto
          -51 callsubr
          23 13 6 15 6 hvcurveto
          -14 16 24 -7 33 hhcurveto
          164 callgsubr
        </CharString>
        <CharString name="dvDH_N_YA">
          728 983 -33 callsubr
          -139 -87 callsubr
          181 -15 callsubr
          79 27 callgsubr
          -7 7 vhcurveto
          95 hlineto
          -469 -378 306 callsubr
          631 267 rmoveto
          -808 -70 429 hlineto
          436 callsubr
          -65 -14 callgsubr
          411 callsubr
          -162 vlineto
          -51 callsubr
          23 13 6 15 6 hvcurveto
          -14 16 24 -7 33 hhcurveto
          74 -79 callsubr
          192 87 -192 vlineto
          23 callgsubr
        </CharString>
        <CharString name="dvDH_R">
          -80 67 311 rmoveto
          -120 213 callgsubr
          33 hlineto
          59 11 -112 -169 rlineto
          97 hlineto
          117 181 rlineto
          47 -160 vlineto
          109 callsubr
          endchar
        </CharString>
        <CharString name="dvDH_RA">
          81 499 626 340 callgsubr
          -119 hlineto
          109 callsubr
          -120 213 callgsubr
          47 hlineto
          45 11 -112 -169 269 callgsubr
        </CharString>
        <CharString name="dvDH_VA">
          271 688 626 rmoveto
          -351 -70 189 69 callgsubr
          -215 vlineto
          -51 callsubr
          22 13 6 14 7 192 callgsubr
        </CharString>
        <CharString name="dvDH_YA">
          374 629 107 callgsubr
          162 70 279 callsubr
          -5 -5 -24 vhcurveto
          -90 -196 hlineto
          -51 callsubr
          23 13 6 15 6 hvcurveto
          -14 17 24 -7 32 101 callgsubr
        </CharString>
        <CharString name="dvD_BA">
          17 243 186 rmoveto
          15 11 1 3 11 hvcurveto
          -121 vlineto
          -3 0 -2 -3 vvcurveto
          -119 125 rlineto
          5 hlineto
          -2 -146 rmoveto
          -22 -6 5 22 hvcurveto
          89 vlineto
          0 vlineto
          111 -116 rlineto
          107 372 rmoveto
          144 73 70 -442 -70 279 -74 -123 vlineto
          -32 callgsubr
          -137 vlineto
          -30 431 callsubr
          -30 vvcurveto
          -105 vlineto
          -53 26 -31 65 vhcurveto
          103 hlineto
          16 11 3 7 6 hvcurveto
          -74 91 423 376 callsubr
          97 -73 callgsubr
          endchar
        </CharString>
        <CharString name="dvD_BHA">
          125 143 171 rmoveto
          62 -29 28 -67 vhcurveto
          -32 -71 12 -93 callsubr
          -253 86 75 182 71 -182 vlineto
          327 334 rmoveto
          168 72 70 -562 -70 400 -97 -91 221 callsubr
          -181 vlineto
          -61 29 -28 67 vhcurveto
          56 229 callsubr
          -131 90 304 -90 -81 vlineto
          -24 -8 -8 -23 45 callsubr
          155 -80 callsubr
          endchar
        </CharString>
        <CharString name="dvD_B_RA">
          28 243 192 rmoveto
          15 11 2 3 11 hvcurveto
          -125 vlineto
          -2 vlineto
          -116 122 rlineto
          2 hlineto
          -2 -152 rmoveto
          -22 -6 5 22 hvcurveto
          95 vlineto
          3 vlineto
          119 -125 rlineto
          -8 hlineto
          107 372 rmoveto
          144 73 70 -442 -70 279 -74 -123 vlineto
          -32 callgsubr
          -130 vlineto
          24 callsubr
          -111 vlineto
          -53 26 -31 65 vhcurveto
          36 hlineto
          -108 -113 rlineto
          92 hlineto
          116 126 rlineto
          -77 91 429 376 callsubr
          91 -73 callgsubr
          endchar
        </CharString>
        <CharString name="dvD_DA">
          6 335 320 callgsubr
          88 70 -446 -70 268 -74 -111 vlineto
          -61 -29 -27 -57 hvcurveto
          -71 vlineto
          -30 431 callsubr
          -30 vvcurveto
          -77 vlineto
          -57 29 -28 61 vhcurveto
          90 hlineto
          18 -63 callsubr
          -89 90 272 -90 -91 vlineto
          331 callgsubr
          -72 -9 callgsubr
          48 282 callsubr
          70 -57 -87 callsubr
          40 418 callsubr
        </CharString>
        <CharString name="dvD_DHA">
          189 136 93 420 callsubr
          43 71 -43 -9 callgsubr
          40 -78 callsubr
          43 70 -66 hlineto
          -61 -29 -27 -57 hvcurveto
          -71 29 callgsubr
          -67 vlineto
          -58 29 -27 61 vhcurveto
          239 70 -216 -87 callsubr
          399 336 348 callsubr
          -213 vlineto
          183 callgsubr
        </CharString>
        <CharString name="dvD_GA">
          241 callgsubr
          -75 vlineto
          -19 -5 -5 -19 vhcurveto
          -19 -56 56 hlineto
          51 22 24 45 hvcurveto
          80 19 vlineto
          17 11 3 7 8 hvcurveto
          -201 86 384 -86 -91 vlineto
          203 callgsubr
        </CharString>
        <CharString name="dvD_GHA">
          189 535 391 348 callsubr
          -15 -120 vlineto
          -61 -29 -27 -57 hvcurveto
          -71 29 callgsubr
          -67 vlineto
          -58 29 -27 61 vhcurveto
          239 70 -216 -87 callsubr
          38 -78 callsubr
          43 71 -43 -9 callgsubr
          40 -78 callsubr
          97 -128 hlineto
          183 callgsubr
        </CharString>
        <CharString name="dvD_G_RA">
          241 callgsubr
          -63 vlineto
          -19 -5 -4 -19 vhcurveto
          -19 -56 56 hlineto
          51 22 24 44 hvcurveto
          68 19 vlineto
          17 11 3 7 8 hvcurveto
          -104 vlineto
          -203 -189 rlineto
          92 hlineto
          111 102 rlineto
          -72 86 446 -86 -91 vlineto
          203 callgsubr
        </CharString>
        <CharString name="dvD_MA">
          174 429 165 rmoveto
          -106 130 -90 -61 hlineto
          -25 -8 -7 -23 vhcurveto
          -38 -75 callgsubr
          150 -73 callgsubr
          153 144 111 hlineto
          152 callgsubr
          -611 -70 248 -74 -91 -20 callsubr
          -176 vlineto
          346 callsubr
          56 229 callsubr
          -142 90 95 106 -95 -100 callsubr
        </CharString>
        <CharString name="dvD_NA">
          246 callsubr
          60 229 callsubr
          -71 -71 vlineto
          -57 -29 -26 -59 hvcurveto
          -41 79 29 -73 callgsubr
          48 -104 86 425 -86 -91 hlineto
          203 callgsubr
        </CharString>
        <CharString name="dvD_R">
          -23 237 hmoveto
          90 271 -90 -63 hlineto
          256 callgsubr
          176 -73 callgsubr
          153 227 callsubr
          -20 callsubr
          -206 213 callgsubr
          2 hlineto
          87 callsubr
          86 -175 300 callgsubr
        </CharString>
        <CharString name="dvD_RA">
          183 callsubr
          -206 213 callgsubr
          2 91 callgsubr
        </CharString>
        <CharString name="dvD_VA">
          -9 223 406 callgsubr
          -7 -6 -22 vhcurveto
          -71 hlineto
          -21 -6 5 22 hvcurveto
          79 -73 callgsubr
          182 235 rmoveto
          144 65 70 -431 -70 275 -74 -119 vlineto
          -32 callgsubr
          -144 vlineto
          24 callsubr
          -97 vlineto
          -53 26 -31 65 vhcurveto
          93 hlineto
          16 10 3 7 7 hvcurveto
          -74 90 421 -90 -56 vlineto
          -21 -6 -5 -23 vhcurveto
          -68 -80 callgsubr
          105 -73 callgsubr
          endchar
        </CharString>
        <CharString name="dvD_YA">
          85 335 178 rmoveto
          331 callgsubr
          -136 284 callsubr
          49 -60 callsubr
          59 68 -59 284 callsubr
          40 -60 callsubr
          84 137 84 hlineto
          152 callgsubr
          -512 -70 179 -71 -26 hlineto
          -61 -29 -27 -56 hvcurveto
          -67 vlineto
          -30 15 -16 24 375 callsubr
          -24 -2 -15 -15 -30 vvcurveto
          -76 vlineto
          -56 29 -27 61 vhcurveto
          161 355 callgsubr
          -100 callsubr
        </CharString>
        <CharString name="dvE">
          8 425 626 rmoveto
          -445 37 callsubr
        </CharString>
        <CharString name="dvEcandra">
          8 267 668 rmoveto
          66 28 445 callsubr
          -80 -47 vlineto
          -24 -5 130 callsubr
          -80 252 callgsubr
          278 -42 rmoveto
          -445 37 callsubr
        </CharString>
        <CharString name="dvEight">
          31 callgsubr
        </CharString>
        <CharString name="dvEyelash">
          -95 322 378 rmoveto
          -97 -76 callgsubr
          58 -88 -70 vlineto
          -57 26 -30 64 vhcurveto
          124 hlineto
          -342 319 rmoveto
          -70 342 70 vlineto
          endchar
        </CharString>
        <CharString name="dvEyelash_HA">
          151 496 320 callgsubr
          80 70 -596 -70 426 -74 -103 vlineto
          -67 -25 -29 -60 hvcurveto
          -42 -68 vlineto
          12 callsubr
          23 hvcurveto
          61 -89 -73 vlineto
          -57 26 -30 65 vhcurveto
          134 -2 hlineto
          -48 callgsubr
          endchar
        </CharString>
        <CharString name="dvEyelash_YA">
          184 439 182 -25 callsubr
          152 callgsubr
          -621 -70 242 220 callgsubr
          -88 212 callsubr
          58 -88 -70 vlineto
          -57 26 -30 65 vhcurveto
          26 -140 hlineto
          23 callgsubr
        </CharString>
        <CharString name="dvFive">
          118 callgsubr
        </CharString>
        <CharString name="dvFour">
          206 callgsubr
        </CharString>
        <CharString name="dvG">
          -34 153 148 rmoveto
          -89 callgsubr
          188 478 rmoveto
          -404 -70 -96 callgsubr
          68 vlineto
          endchar
        </CharString>
        <CharString name="dvGA">
          160 153 148 rmoveto
          -89 callgsubr
          381 478 rmoveto
          -597 -70 -96 callgsubr
          99 263 callgsubr
        </CharString>
        <CharString name="dvGH">
          -151 342 438 callgsubr
          -362 -70 74 vlineto
          -5 -5 -3 -8 -13 vvcurveto
          -129 vlineto
          24 callsubr
          -134 vlineto
          -61 32 -28 65 vhcurveto
          199 70 -176 60 callsubr
          26 5 6 26 vhcurveto
          endchar
        </CharString>
        <CharString name="dvGHA">
          43 298 -33 callsubr
          -98 60 callsubr
          30 7 2 37 vhcurveto
          117 hlineto
          152 callgsubr
          -480 -70 77 hlineto
          -7 -6 -4 -10 -14 vvcurveto
          -125 vlineto
          24 callsubr
          -134 vlineto
          -61 32 -28 65 vhcurveto
          120 -37 callsubr
        </CharString>
        <CharString name="dvGH_MA">
          416 672 177 callsubr
          188 callgsubr
          -45 -80 callgsubr
          155 -60 callsubr
          75 hlineto
          -310 -214 rmoveto
          -24 -5 -86 callgsubr
          109 -78 callsubr
          61 71 -61 hlineto
          -24 -5 421 callgsubr
          26 5 6 26 vhcurveto
          308 335 callsubr
          -64 191 callgsubr
          -165 vlineto
          347 callgsubr
          581 478 rmoveto
          -853 -70 74 hlineto
          -5 -5 -3 -8 -13 vvcurveto
          -129 vlineto
          24 callsubr
          -134 vlineto
          -61 32 -28 65 vhcurveto
          111 hlineto
          28 18 7 13 11 hvcurveto
          -14 15 24 -6 32 hhcurveto
          88 -79 callsubr
          195 106 -362 90 162 callsubr
        </CharString>
        <CharString name="dvGH_NA">
          385 634 482 rmoveto
          -257 388 callsubr
          -215 vlineto
          347 callgsubr
          -86 60 callsubr
          26 5 6 26 vhcurveto
          466 hlineto
          -172 -378 184 callgsubr
          334 214 rmoveto
          -816 -70 74 hlineto
          -5 -5 -3 -8 -13 vvcurveto
          -129 vlineto
          24 callsubr
          -134 vlineto
          -61 32 -28 65 vhcurveto
          111 hlineto
          28 18 7 13 11 hvcurveto
          -14 15 24 -6 32 hhcurveto
          74 -79 callsubr
          245 82 -412 115 callsubr
        </CharString>
        <CharString name="dvGH_R">
          -90 333 438 callgsubr
          -353 -70 77 vlineto
          -7 -6 -4 -10 -14 vvcurveto
          -112 277 callgsubr
          -123 213 callgsubr
          91 344 callgsubr
          118 181 rlineto
          47 -167 vlineto
          -24 -5 -86 callgsubr
          94 vlineto
          25 -34 callsubr
          61 70 -61 -87 callsubr
          94 vlineto
          30 7 2 37 vhcurveto
          endchar
        </CharString>
        <CharString name="dvGH_RA">
          44 299 208 rmoveto
          -24 -8 -8 -24 vhcurveto
          -101 -87 callsubr
          94 -78 callsubr
          61 70 -61 -87 callsubr
          95 vlineto
          30 7 2 37 vhcurveto
          118 hlineto
          152 callgsubr
          -481 -70 77 hlineto
          -7 -6 -4 -10 -14 vvcurveto
          -113 vlineto
          -30 431 callsubr
          -30 vvcurveto
          -123 213 callgsubr
          58 hlineto
          16 11 -112 -169 rlineto
          98 342 callsubr
          -100 callsubr
        </CharString>
        <CharString name="dvGH_YA">
          307 578 182 -4 callsubr
          -7 7 vhcurveto
          95 hlineto
          -292 -178 rmoveto
          -196 vlineto
          347 callgsubr
          -86 60 callsubr
          26 5 6 26 vhcurveto
          193 135 callsubr
          349 248 rmoveto
          -744 -70 74 hlineto
          -5 -5 -3 -8 -13 vvcurveto
          -129 vlineto
          24 callsubr
          -134 vlineto
          -61 32 -28 65 vhcurveto
          111 hlineto
          28 18 7 13 11 hvcurveto
          -13 16 24 -7 31 hhcurveto
          429 callgsubr
          556 56 vlineto
          endchar
        </CharString>
        <CharString name="dvG_BA">
          385 529 148 -66 callsubr
          -3 -4 0 -5 hhcurveto
          -465 hmoveto
          -89 callgsubr
          613 478 rmoveto
          -829 -70 -96 callgsubr
          330 -231 vlineto
          163 callsubr
        </CharString>
        <CharString name="dvG_BHA">
          535 153 148 rmoveto
          -89 callgsubr
          -216 408 rmoveto
          -96 callgsubr
          61 70 -397 vlineto
          615 -448 57 callgsubr
        </CharString>
        <CharString name="dvG_BH_YA">
          827 153 148 rmoveto
          -89 callgsubr
          -216 408 rmoveto
          -96 callgsubr
          61 70 -397 vlineto
          1080 -444 -6 callsubr
        </CharString>
        <CharString name="dvG_DA">
          339 153 148 rmoveto
          -89 callgsubr
          483 264 rmoveto
          144 72 70 -771 -70 190 callsubr
          vlineto
          -69 -31 -28 -59 hvcurveto
          -182 vlineto
          -61 29 -28 67 vhcurveto
          90 -79 callsubr
          389 273 -74 -91 vlineto
          -32 callgsubr
          -230 -29 callgsubr
        </CharString>
        <CharString name="dvG_DHA">
          422 153 148 rmoveto
          -89 callgsubr
          -216 408 rmoveto
          -96 callgsubr
          62 70 -398 vlineto
          860 hmoveto
          -162 -444 75 callgsubr
          145 -37 callsubr
        </CharString>
        <CharString name="dvG_DH_VA">
          613 153 148 rmoveto
          -89 callgsubr
          -216 408 rmoveto
          -96 callgsubr
          62 70 -398 vlineto
          1050 hmoveto
          -351 -70 189 -376 hlineto
          321 callgsubr
          -57 388 callsubr
          -215 vlineto
          -73 callsubr
          -117 -97 callsubr
          -29 27 -61 vhcurveto
          -39 hlineto
          -60 -29 -27 -57 hvcurveto
          -154 vlineto
          -31 14 -15 179 callsubr
          -30 vvcurveto
          -131 vlineto
          -58 29 -27 60 vhcurveto
          159 hlineto
          23 15 6 15 7 hvcurveto
          -14 15 23 -7 29 hhcurveto
          62 380 callgsubr
        </CharString>
        <CharString name="dvG_DH_YA">
          716 153 148 rmoveto
          -89 callgsubr
          -216 408 rmoveto
          -96 callgsubr
          62 70 -398 vlineto
          991 -444 rmoveto
          -73 callsubr
          -139 hlineto
          -24 -5 185 callgsubr
          152 callgsubr
          -454 -70 75 234 callsubr
          -73 callsubr
          -117 -97 callsubr
          -29 27 -61 vhcurveto
          -39 hlineto
          -60 -29 -27 -57 hvcurveto
          -154 vlineto
          -31 14 -15 179 callsubr
          -30 vvcurveto
          -131 vlineto
          -58 29 -27 60 vhcurveto
          159 hlineto
          24 15 6 15 7 hvcurveto
          -14 16 24 -7 32 hhcurveto
          160 -76 callsubr
        </CharString>
        <CharString name="dvG_GA">
          519 512 148 rmoveto
          -89 callgsubr
          -402 hmoveto
          -89 callgsubr
          740 478 rmoveto
          -956 -70 -96 callgsubr
          269 -120 -92 vlineto
          -69 -31 -28 -59 hvcurveto
          -182 vlineto
          -61 29 -28 67 vhcurveto
          90 -79 callsubr
          389 99 263 callgsubr
        </CharString>
        <CharString name="dvG_GHA">
          407 665 -33 callsubr
          -98 60 callsubr
          30 7 2 37 vhcurveto
          117 hlineto
          -512 -408 rmoveto
          -89 callgsubr
          631 478 rmoveto
          -847 -70 -96 callgsubr
          108 vlineto
          -7 -6 -4 -10 -14 vvcurveto
          -125 vlineto
          24 callsubr
          -134 vlineto
          -61 32 -28 65 vhcurveto
          120 -37 callsubr
        </CharString>
        <CharString name="dvG_JA">
          505 153 148 rmoveto
          -89 callgsubr
          728 478 rmoveto
          -944 -70 -96 callgsubr
          446 -74 -174 57 callsubr
          84 -412 -100 callsubr
        </CharString>
        <CharString name="dvG_LA">
          502 153 148 rmoveto
          -89 callgsubr
          724 478 rmoveto
          -940 -70 -96 callgsubr
          447 -74 -83 vlineto
          -106 callsubr
          -197 90 197 17 callsubr
          60 -412 90 556 67 hlineto
          endchar
        </CharString>
        <CharString name="dvG_MA">
          535 790 432 305 callgsubr
          -195 -354 -91 callsubr
          -442 -214 rmoveto
          -89 callgsubr
          756 478 rmoveto
          -972 -70 -96 callgsubr
          279 -124 -99 vlineto
          243 callgsubr
        </CharString>
        <CharString name="dvG_NA">
          497 580 178 -103 callsubr
          -427 -264 rmoveto
          -89 callgsubr
          719 478 rmoveto
          -935 -70 -96 callgsubr
          437 -74 -257 vlineto
          242 callgsubr
        </CharString>
        <CharString name="dvG_NNA">
          507 586 178 -27 callsubr
          -433 -408 rmoveto
          -89 callgsubr
          728 478 rmoveto
          -944 -70 -96 callgsubr
          90 -389 vlineto
          170 callgsubr
          86 263 callgsubr
        </CharString>
        <CharString name="dvG_N_YA">
          793 1048 -41 callsubr
          181 228 callgsubr
          79 98 callsubr
          -469 -378 78 callsubr
          -426 -211 rmoveto
          -89 callgsubr
          1014 478 rmoveto
          -1230 -70 -96 callgsubr
          515 237 callsubr
          411 callsubr
          -177 vlineto
          9 callsubr
        </CharString>
        <CharString name="dvG_R">
          2 239 -56 88 callgsubr
        </CharString>
        <CharString name="dvG_RA">
          160 153 220 76 callsubr
        </CharString>
        <CharString name="dvG_R_YA">
          436 691 -31 callgsubr
          -538 -336 79 callgsubr
          657 406 rmoveto
          -873 -70 246 -74 -92 hlineto
          89 callgsubr
          158 vlineto
          4 callgsubr
          -153 hlineto
          -260 -281 rlineto
          100 hlineto
          167 180 rlineto
          -31 12 30 -15 47 hhcurveto
          -53 callgsubr
        </CharString>
        <CharString name="dvG_SA">
          512 769 348 rmoveto
          -103 hlineto
          -101 callsubr
          96 hlineto
          -616 -408 rmoveto
          -89 callgsubr
          734 478 rmoveto
          -950 -70 -96 callgsubr
          243 152 callsubr
          275 182 callsubr
        </CharString>
        <CharString name="dvG_VA">
          338 153 148 rmoveto
          -89 callgsubr
          558 478 rmoveto
          -774 -70 -96 callgsubr
          276 -376 vlineto
          173 callsubr
          -89 90 -82 callgsubr
          endchar
        </CharString>
        <CharString name="dvG_YA">
          441 696 -31 callgsubr
          -543 -408 rmoveto
          -89 callgsubr
          662 478 rmoveto
          -878 -70 -96 callgsubr
          163 vlineto
          -18 callgsubr
        </CharString>
        <CharString name="dvGx">
          -34 130 -96 9 callgsubr
          23 149 rmoveto
          -89 callgsubr
          188 478 rmoveto
          -404 -70 -96 callgsubr
          68 vlineto
          endchar
        </CharString>
        <CharString name="dvGxA">
          160 130 -94 9 callgsubr
          23 147 rmoveto
          -89 callgsubr
          381 478 rmoveto
          -597 -70 -96 callgsubr
          99 263 callgsubr
        </CharString>
        <CharString name="dvGx_R">
          2 348 -114 9 callgsubr
          -109 -37 88 callgsubr
        </CharString>
        <CharString name="dvGx_RA">
          160 321 -140 9 callgsubr
          -168 265 76 callsubr
        </CharString>
        <CharString name="dvH">
          -8 164 -61 rmoveto
          107 -134 rlineto
          94 hlineto
          -106 134 rlineto
          -279 687 rmoveto
          75 callsubr
          166 144 80 70 hlineto
          endchar
        </CharString>
        <CharString name="dvHA">
          -8 337 320 callgsubr
          80 70 -437 75 callsubr
          endchar
        </CharString>
        <CharString name="dvHA_mU">
          -8 337 320 callgsubr
          80 70 -437 -70 267 -74 -103 vlineto
          325 callsubr
          425 callsubr
          27 -28 69 vhcurveto
          77 hlineto
          26 5 -5 -26 hvcurveto
          -30 vlineto
          -26 -5 -5 -26 vhcurveto
          -65 hlineto
          -25 -16 7 428 callgsubr
          -64 37 30 -14 78 hhcurveto
          100 hlineto
          60 155 callgsubr
          55 vlineto
          62 143 callgsubr
          -85 -62 callgsubr
          endchar
        </CharString>
        <CharString name="dvHA_mUU">
          0 390 -5 rmoveto
          58 -37 -22 17 -76 hhcurveto
          -84 -62 callgsubr
          166 144 80 70 -437 274 callgsubr
          -142 vlineto
          -40 11 -25 28 -12 vhcurveto
          -2 -8 -1 -10 -11 vvcurveto
          -55 vlineto
          -61 28 -28 60 vhcurveto
          85 71 -54 99 callsubr
          30 vlineto
          26 5 5 26 vhcurveto
          47 hlineto
          25 12 -12 -20 12 hvcurveto
          81 -129 rlineto
          103 hlineto
          endchar
        </CharString>
        <CharString name="dvHA_mvR">
          -11 384 callsubr
          80 70 -434 340 callsubr
          -60 vlineto
          -31 26 callgsubr
          -148 vlineto
          -61 142 callsubr
          197 66 -174 -75 callgsubr
          136 -60 callsubr
          53 hlineto
          11 4 -4 -8 hvcurveto
          -20 -38 -33 -39 vvcurveto
          -36 25 -15 43 vhcurveto
          65 58 -39 hlineto
          -11 -4 4 8 hvcurveto
          21 40 35 41 vvcurveto
          37 -25 15 -44 vhcurveto
          -80 -76 callgsubr
          33 94 callgsubr
          endchar
        </CharString>
        <CharString name="dvH_LA">
          139 384 callsubr
          229 70 -583 223 callgsubr
          194 66 -171 284 callsubr
          232 -62 callsubr
          23 vhcurveto
          228 18 callgsubr
          -15 -48 vlineto
          -23 -9 -9 -14 -6 hvcurveto
          -1 hlineto
          16 -5 -13 7 -29 hhcurveto
          -31 hlineto
          -47 -24 -20 -46 hvcurveto
          -68 vlineto
          -47 24 -21 47 vhcurveto
          64 55 -50 hlineto
          -20 -4 4 21 hvcurveto
          45 vlineto
          20 4 5 20 vhcurveto
          9 hlineto
          21 4 -5 -20 hvcurveto
          -33 61 33 vlineto
          20 4 5 20 vhcurveto
          32 -149 69 228 hlineto
          54 -26 26 -57 vhcurveto
          -244 216 callsubr
        </CharString>
        <CharString name="dvH_MA">
          177 437 248 rmoveto
          -93 hlineto
          45 -5 -26 22 -53 hhcurveto
          -89 81 callgsubr
          166 144 100 hlineto
          152 callgsubr
          -619 -70 267 -74 -103 hlineto
          261 callgsubr
          197 70 -174 -75 callgsubr
          115 -62 callsubr
          23 vhcurveto
          54 18 callgsubr
          -88 90 56 92 -183 -100 callsubr
        </CharString>
        <CharString name="dvH_NA">
          27 384 callsubr
          110 70 -464 224 callgsubr
          192 66 -169 -75 callgsubr
          154 -62 callsubr
          23 vhcurveto
          128 hlineto
          24 7 -5 -25 hvcurveto
          -16 -71 vlineto
          -55 -24 -24 -54 hvcurveto
          -27 71 20 -78 callsubr
          50 -67 66 150 hlineto
          53 -26 27 -57 vhcurveto
          -142 -76 callgsubr
          17 94 callgsubr
          endchar
        </CharString>
        <CharString name="dvH_NNA">
          88 289 177 rmoveto
          -13 -3 -4 -12 vhcurveto
          -13 hlineto
          -13 -3 4 13 hvcurveto
          103 44 vlineto
          45 134 rmoveto
          142 171 70 -525 224 callgsubr
          194 66 -171 -75 callgsubr
          154 -62 callsubr
          23 vhcurveto
          14 -110 hlineto
          -38 19 -23 39 vhcurveto
          49 hlineto
          38 20 23 38 hvcurveto
          110 13 vlineto
          23 6 -5 -25 hvcurveto
          -53 70 64 vlineto
          53 -26 27 -57 vhcurveto
          -208 -76 callgsubr
          17 94 callgsubr
          endchar
        </CharString>
        <CharString name="dvH_R">
          46 180 -61 97 callsubr
          59 475 51 callsubr
        </CharString>
        <CharString name="dvH_RA">
          46 334 414 51 callsubr
        </CharString>
        <CharString name="dvH_VA">
          76 384 callsubr
          166 70 -520 223 callgsubr
          190 66 -167 284 callsubr
          232 -62 callsubr
          23 vhcurveto
          164 18 callgsubr
          -109 vlineto
          -73 callsubr
          -59 hlineto
          -20 -4 4 21 hvcurveto
          15 vlineto
          21 4 4 20 vhcurveto
          44 53 -59 hlineto
          -47 -23 -21 -45 hvcurveto
          -39 vlineto
          -47 23 -21 47 vhcurveto
          76 hlineto
          14 11 3 6 7 hvcurveto
          -47 69 248 vlineto
          54 -27 26 -57 vhcurveto
          -179 216 callsubr
        </CharString>
        <CharString name="dvH_YA">
          187 440 228 rmoveto
          -73 callsubr
          -81 hlineto
          8 8 4 13 15 vvcurveto
          12 vlineto
          58 -24 30 -65 vhcurveto
          -77 -76 callgsubr
          28 94 callgsubr
          163 142 106 hlineto
          161 70 rmoveto
          -621 367 callsubr
          -20 callsubr
          -55 vlineto
          -31 26 callgsubr
          -153 vlineto
          -61 142 callsubr
          194 66 -171 -75 callgsubr
          143 -62 callsubr
          23 vhcurveto
          61 hlineto
          23 5 -5 -23 hvcurveto
          -19 vlineto
          -23 -5 -5 -23 vhcurveto
          -34 -61 210 hlineto
          14 11 3 6 7 hvcurveto
          -142 231 callsubr
        </CharString>
        <CharString name="dvI">
          -31 311 287 callgsubr
          75 70 -406 28 callsubr
          endchar
        </CharString>
        <CharString name="dvII">
          -31 311 287 callgsubr
          75 70 -75 59 vlineto
          24 6 4 24 vhcurveto
          38 68 -66 hlineto
          -65 320 callsubr
          -71 -241 28 callsubr
          endchar
        </CharString>
        <CharString name="dvII_Anusvara">
          -31 311 737 rmoveto
          24 6 4 24 vhcurveto
          42 68 -70 hlineto
          -65 320 callsubr
          -123 -241 28 callsubr
          158 142 75 70 -75 hlineto
          32 105 rmoveto
          -75 71 75 vlineto
          endchar
        </CharString>
        <CharString name="dvJ">
          -51 433 147 callgsubr
        </CharString>
        <CharString name="dvJA">
          143 560 626 rmoveto
          -580 -70 418 -74 -174 225 callgsubr
          84 -412 -100 callsubr
        </CharString>
        <CharString name="dvJH">
          -21 318 287 callgsubr
          144 70 -482 424 callsubr
          -93 vlineto
          -42 callsubr
          136 68 -300 380 callsubr
        </CharString>
        <CharString name="dvJHA">
          173 428 320 rmoveto
          -266 hlineto
          141 callgsubr
          110 hlineto
          152 callgsubr
          -614 -70 251 -74 -93 hlineto
          -42 callsubr
          102 -252 300 callsubr
        </CharString>
        <CharString name="dvJH_MA">
          541 796 432 305 callgsubr
          -195 -354 -91 callsubr
          -443 -42 rmoveto
          141 callgsubr
          287 381 callsubr
          -27 vlineto
          548 306 rmoveto
          -982 424 callsubr
          -93 hlineto
          -42 callsubr
          88 -61 297 callgsubr
        </CharString>
        <CharString name="dvJH_NA">
          508 763 428 callsubr
          -77 -252 vlineto
          141 callgsubr
          445 hlineto
          -173 -378 91 callsubr
          -945 424 callsubr
          -93 hlineto
          -42 callsubr
          88 -85 hlineto
          118 callsubr
        </CharString>
        <CharString name="dvJH_R">
          80 309 -70 rmoveto
          198 205 rlineto
          95 vlineto
          -301 -300 rlineto
          112 484 rmoveto
          142 189 70 -527 424 callsubr
          -93 vlineto
          -42 callsubr
          181 68 -345 380 callsubr
        </CharString>
        <CharString name="dvJH_RA">
          173 428 330 rmoveto
          -266 422 callsubr
          34 -78 callsubr
          156 135 110 hlineto
          152 callgsubr
          -614 -70 251 -70 -93 hlineto
          -64 -27 -27 -55 hvcurveto
          -58 vlineto
          -55 27 -27 64 vhcurveto
          74 6 callsubr
          -4 -24 hvcurveto
          -58 240 callsubr
          -74 49 -90 -199 90 85 102 hlineto
          65 27 27 55 hvcurveto
          78 vlineto
          7 0 6 -1 6 vhcurveto
          101 -79 hlineto
          -234 -237 rlineto
          96 hlineto
          138 146 rlineto
          -94 -100 callsubr
        </CharString>
        <CharString name="dvJH_YA">
          447 702 -31 callgsubr
          -544 -236 rmoveto
          141 callgsubr
          171 hlineto
          4 callgsubr
          -58 hlineto
          454 306 rmoveto
          -888 424 callsubr
          -93 hlineto
          -42 callsubr
          88 -85 hlineto
          -75 callsubr
        </CharString>
        <CharString name="dvJ_BA">
          386 524 148 rmoveto
          -24 -5 -59 callsubr
          -4 -4 0 -4 hhcurveto
          190 410 callsubr
          -231 hlineto
          130 callgsubr
          -377 225 callgsubr
          187 callgsubr
          103 callgsubr
          113 290 callsubr
        </CharString>
        <CharString name="dvJ_DA">
          332 678 320 callgsubr
          77 70 -775 -70 607 -74 -363 57 callsubr
          187 callgsubr
          -230 371 callsubr
          271 -90 437 callgsubr
          -24 vhcurveto
          -37 hlineto
          -24 -5 22 callgsubr
          endchar
        </CharString>
        <CharString name="dvJ_DDA">
          360 callsubr
          -343 57 callsubr
          187 callgsubr
          -92 callsubr
          endchar
        </CharString>
        <CharString name="dvJ_JA">
          440 callsubr
          779 -74 -174 -304 hlineto
          86 callsubr
          -271 57 callsubr
          91 -245 -44 callgsubr
          84 -412 -100 callsubr
        </CharString>
        <CharString name="dvJ_JHA">
          535 790 320 rmoveto
          -266 hlineto
          141 callgsubr
          110 hlineto
          152 callgsubr
          -972 -70 609 -74 -365 225 callgsubr
          187 callgsubr
          -60 357 callgsubr
          74 32 callsubr
          -64 vlineto
          -24 -5 42 callgsubr
          102 -252 300 callsubr
        </CharString>
        <CharString name="dvJ_J_NYA">
          487 897 626 rmoveto
          -917 -70 754 -80 -510 -298 hlineto
          7 callsubr
          298 -90 -309 -89 callsubr
          239 218 vlineto
          23 6 -5 -24 hvcurveto
          -218 -38 callsubr
          -57 78 -91 -221 91 75 85 hlineto
          64 395 callgsubr
          233 vlineto
          13 -3 8 -5 5 vhcurveto
          91 -406 91 -59 callgsubr
          hlineto
          endchar
        </CharString>
        <CharString name="dvJ_J_VA">
          692 1109 626 rmoveto
          -1129 -70 967 67 callgsubr
          -322 -304 hlineto
          417 callgsubr
          304 -271 57 callsubr
          91 -245 -44 callgsubr
          85 vlineto
          -2 -7 0 -9 -8 vvcurveto
          -221 vlineto
          139 callgsubr
        </CharString>
        <CharString name="dvJ_J_YA">
          788 1043 -19 callsubr
          204 -15 callsubr
          58 vlineto
          13 -3 9 -5 7 vhcurveto
          92 hlineto
          152 callgsubr
          -1225 -70 849 hlineto
          38 3 -4 -26 hvcurveto
          -45 -14 callgsubr
          -263 -274 41 callsubr
          -31 -75 callgsubr
          274 -264 -274 310 callsubr
          274 -90 -285 277 callsubr
          84 -215 277 callsubr
          83 -215 vlineto
          95 callsubr
        </CharString>
        <CharString name="dvJ_KA">
          518 932 438 callgsubr
          -952 -70 614 -376 vlineto
          321 callgsubr
          -329 225 callgsubr
          92 293 callsubr
          380 1 callsubr
          23 vhcurveto
          38 hlineto
          24 5 -5 -25 hvcurveto
          -207 vlineto
          -24 -5 -69 callgsubr
        </CharString>
        <CharString name="dvJ_MA">
          536 791 177 callsubr
          -354 rmoveto
          199 callgsubr
          -44 -80 callgsubr
          131 -60 callsubr
          75 hlineto
          358 264 rmoveto
          -973 -70 615 -124 -371 -254 hlineto
          7 callsubr
          254 -90 -265 -89 callsubr
          195 187 callgsubr
          -156 vlineto
          346 callsubr
          88 244 callgsubr
        </CharString>
        <CharString name="dvJ_NA">
          498 581 292 callgsubr
          334 214 rmoveto
          -935 -70 773 -74 -529 225 callgsubr
          187 callgsubr
          -230 vlineto
          -49 callsubr
          29 28 61 hvcurveto
          245 82 -412 115 callsubr
        </CharString>
        <CharString name="dvJ_NY">
          -53 68 406 rmoveto
          205 callsubr
          133 70 -370 hlineto
          -88 150 rmoveto
          -70 458 70 vlineto
          endchar
        </CharString>
        <CharString name="dvJ_NYA">
          142 559 626 rmoveto
          -579 -70 416 -80 -328 -70 205 callsubr
          91 -406 90 556 73 hlineto
          endchar
        </CharString>
        <CharString name="dvJ_NY_YA">
          431 686 -19 callsubr
          172 -15 callsubr
          88 64 callgsubr
          152 callgsubr
          -868 -70 490 hlineto
          436 callsubr
          -74 390 callsubr
          -416 -71 126 222 callgsubr
          -23 hvcurveto
          -163 -38 callsubr
          -57 78 -91 -221 91 75 84 358 callgsubr
          178 vlineto
          12 -3 8 -4 5 vhcurveto
          88 -183 hlineto
          -61 32 -28 65 vhcurveto
          160 106 callgsubr
        </CharString>
        <CharString name="dvJ_R">
          103 callsubr
          endchar
        </CharString>
        <CharString name="dvJ_RA">
          143 560 626 110 callgsubr
        </CharString>
        <CharString name="dvJ_TA">
          362 779 626 rmoveto
          -799 -70 637 -74 -393 225 callgsubr
          187 callgsubr
          -312 vlineto
          -57 27 -28 64 267 callgsubr
        </CharString>
        <CharString name="dvJ_TTA">
          322 670 320 callgsubr
          69 70 -759 -70 599 -74 -355 57 callsubr
          187 callgsubr
          2 callgsubr
        </CharString>
        <CharString name="dvJ_VA">
          339 756 626 rmoveto
          -776 -70 614 -376 hlineto
          -24 -8 -8 -24 -28 callsubr
          205 -78 callsubr
          29 70 -329 225 callgsubr
          92 293 callsubr
          -82 callgsubr
          endchar
        </CharString>
        <CharString name="dvJ_YA">
          435 690 182 43 callsubr
        </CharString>
        <CharString name="dvJx">
          -51 134 hmoveto
          -95 83 95 vlineto
          216 147 callgsubr
        </CharString>
        <CharString name="dvJxA">
          143 136 -93 9 callgsubr
          424 624 rmoveto
          -580 -70 418 -74 -174 225 callgsubr
          84 -412 -100 callsubr
        </CharString>
        <CharString name="dvJx_JxA">
          504 137 -87 9 callgsubr
          366 -95 9 callgsubr
          418 618 rmoveto
          -941 -70 779 -74 -174 -304 hlineto
          86 callsubr
          -271 57 callsubr
          91 -245 -44 callgsubr
          84 -412 -100 callsubr
        </CharString>
        <CharString name="dvJx_R">
          103 callsubr
          -128 -184 445 callgsubr
        </CharString>
        <CharString name="dvJx_RA">
          143 322 -132 9 callgsubr
          238 663 110 callgsubr
        </CharString>
        <CharString name="dvJx_YA">
          435 135 -93 9 callgsubr
          555 180 43 callsubr
        </CharString>
        <CharString name="dvK">
          -16 469 438 callgsubr
          -489 -70 249 -376 vlineto
          -107 callgsubr
          350 1 callsubr
          24 vhcurveto
          118 70 -114 hlineto
          271 callgsubr
          vlineto
          endchar
        </CharString>
        <CharString name="dvKA">
          151 568 556 -67 callgsubr
        </CharString>
        <CharString name="dvKH">
          72 421 374 rmoveto
          323 callgsubr
          132 71 -106 -9 callgsubr
          -441 416 rmoveto
          -70 188 vlineto
          3 callgsubr
          274 70 hlineto
          endchar
        </CharString>
        <CharString name="dvKHA">
          260 677 626 39 callsubr
        </CharString>
        <CharString name="dvKH_KHA">
          732 1149 626 rmoveto
          -1169 -91 callgsubr
          358 hlineto
          26 5 -6 -26 hvcurveto
          -179 vlineto
          -26 -5 -6 -26 vhcurveto
          -32 158 -90 -254 hlineto
          -34 callgsubr
          -38 vlineto
          84 callgsubr
          -27 vhcurveto
          -30 134 callsubr
          35 68 -60 hlineto
          -64 -28 39 callgsubr
          -187 vlineto
          -61 -30 callgsubr
          54 267 callsubr
        </CharString>
        <CharString name="dvKH_MA">
          616 885 432 rmoveto
          -86 124 86 hlineto
          -176 -354 -91 callsubr
          338 264 rmoveto
          -1067 -91 callgsubr
          427 381 callsubr
          -139 407 callgsubr
          183 vlineto
          -35 callsubr
          -206 vlineto
          -62 335 callgsubr
          58 hlineto
          26 20 7 18 9 hvcurveto
          -17 15 26 -8 36 hhcurveto
          89 315 callgsubr
          86 -362 -100 callsubr
        </CharString>
        <CharString name="dvKH_NA">
          612 694 178 rmoveto
          -77 callsubr
          24 vhcurveto
          56 hlineto
          335 214 rmoveto
          -1049 -91 callgsubr
          585 327 callsubr
          -180 vlineto
          -27 -10 -9 -27 vhcurveto
          -31 -9 callgsubr
          175 vlineto
          -35 callsubr
          -198 vlineto
          -61 -30 callgsubr
          58 hlineto
          20 14 5 10 8 hvcurveto
          -32 12 29 -15 49 hhcurveto
          90 callsubr
        </CharString>
        <CharString name="dvKH_R">
          88 137 243 48 callsubr
        </CharString>
        <CharString name="dvKH_RA">
          260 677 626 33 callsubr
        </CharString>
        <CharString name="dvKH_SHA">
          620 137 243 -32 callsubr
        </CharString>
        <CharString name="dvKH_TA">
          475 892 626 rmoveto
          -912 -70 188 hlineto
          3 callgsubr
          448 -74 -120 -20 callsubr
          -180 vlineto
          -34 callgsubr
          -40 124 callsubr
        </CharString>
        <CharString name="dvKH_VA">
          439 856 626 -2 callgsubr
        </CharString>
        <CharString name="dvKH_YA">
          555 810 182 -19 callgsubr
        </CharString>
        <CharString name="dvKHx">
          72 134 -154 9 callgsubr
          287 433 rmoveto
          323 callgsubr
          132 71 -106 -9 callgsubr
          -441 416 rmoveto
          -70 188 vlineto
          3 callgsubr
          274 70 hlineto
          endchar
        </CharString>
        <CharString name="dvKHxA">
          260 134 -154 9 callgsubr
          543 685 39 callsubr
        </CharString>
        <CharString name="dvKHx_MA">
          616 134 -154 9 callgsubr
          751 491 rmoveto
          -86 124 86 hlineto
          -176 -354 -91 callsubr
          338 264 rmoveto
          -1067 -91 callgsubr
          427 381 callsubr
          -139 407 callgsubr
          183 vlineto
          -35 callsubr
          -206 vlineto
          -62 335 callgsubr
          58 hlineto
          26 20 7 18 9 hvcurveto
          -17 15 26 -8 36 hhcurveto
          89 315 callgsubr
          86 -362 -100 callsubr
        </CharString>
        <CharString name="dvKHx_R">
          88 183 -143 9 callgsubr
          -46 291 48 callsubr
        </CharString>
        <CharString name="dvKHx_RA">
          260 453 -140 9 callgsubr
          224 671 33 callsubr
        </CharString>
        <CharString name="dvKHx_SA">
          630 134 -154 9 callgsubr
          749 407 rmoveto
          -103 hlineto
          -101 callsubr
          96 hlineto
          161 70 rmoveto
          -1064 -91 callgsubr
          391 hlineto
          141 callsubr
          -234 207 callsubr
          28 68 -52 138 callsubr
          91 180 callsubr
          125 -90 -113 vlineto
          -24 -6 -5 -22 139 callsubr
        </CharString>
        <CharString name="dvKHx_SHA">
          620 134 -154 9 callgsubr
          3 302 -32 callsubr
        </CharString>
        <CharString name="dvKHx_TA">
          475 134 -154 9 callgsubr
          758 685 rmoveto
          -912 -70 188 hlineto
          3 callgsubr
          448 -74 -120 -20 callsubr
          -180 vlineto
          -34 callgsubr
          -40 124 callsubr
        </CharString>
        <CharString name="dvKHx_VA">
          439 134 -154 9 callgsubr
          722 685 -2 callgsubr
        </CharString>
        <CharString name="dvKHx_YA">
          555 134 -154 9 callgsubr
          676 241 -19 callgsubr
        </CharString>
        <CharString name="dvK_CA">
          365 620 180 rmoveto
          -24 -8 -8 -24 vhcurveto
          -53 -87 callsubr
          174 vlineto
          28 7 2 35 vhcurveto
          24 70 -217 hlineto
          271 callgsubr
          301 369 callgsubr
          -802 -105 callgsubr
          350 1 callsubr
          24 vhcurveto
          74 342 callgsubr
          -183 vlineto
          -61 -30 callgsubr
          79 -76 callsubr
        </CharString>
        <CharString name="dvK_DA">
          345 319 556 rmoveto
          281 -100 -245 283 callsubr
          371 -59 rmoveto
          170 78 70 -788 -70 249 -376 vlineto
          -107 callgsubr
          354 358 callsubr
          68 hlineto
          195 callgsubr
          -204 371 callsubr
          269 -90 -89 vlineto
          -24 -8 -8 -24 vhcurveto
          -37 -87 callsubr
          178 -73 callgsubr
          endchar
        </CharString>
        <CharString name="dvK_JA">
          517 772 482 rmoveto
          -174 -304 hlineto
          417 callgsubr
          304 -153 vlineto
          -17 -11 -3 -7 -8 hvcurveto
          84 453 369 callgsubr
          -954 -105 callgsubr
          380 126 callsubr
          67 -245 113 callsubr
        </CharString>
        <CharString name="dvK_KA">
          517 595 180 -13 callgsubr
        </CharString>
        <CharString name="dvK_KHA">
          631 571 345 rmoveto
          -33 callgsubr
          -31 139 -153 hlineto
          271 callgsubr
          220 vlineto
          287 callsubr
          477 102 rmoveto
          -1068 -105 callgsubr
          350 1 callsubr
          24 vhcurveto
          67 -295 hlineto
          -60 31 -27 69 vhcurveto
          242 73 -221 hlineto
          -25 -6 5 26 hvcurveto
          139 61 vlineto
          64 28 27 59 hvcurveto
          201 vlineto
          13 -3 8 -5 5 vhcurveto
          236 -339 hlineto
          -27 -10 -9 -27 vhcurveto
          -31 284 callsubr
          164 vlineto
          24 6 5 23 73 callsubr
          -187 vlineto
          -61 -30 callgsubr
          54 hlineto
          20 12 4 10 8 hvcurveto
          -124 87 -101 callgsubr
        </CharString>
        <CharString name="dvK_LA">
          516 777 452 258 callsubr
          -3 -15 14 -31 hhcurveto
          -239 hlineto
          271 callgsubr
          458 vlineto
          156 70 rmoveto
          -953 -105 callgsubr
          350 1 callsubr
          24 vhcurveto
          68 hlineto
          -1 -6 447 callsubr
          -278 389 callgsubr
          87 73 -59 422 callsubr
          251 vlineto
          25 -34 callsubr
          31 hlineto
          25 5 -6 -24 hvcurveto
          -167 90 167 17 callsubr
          60 -382 90 556 66 hlineto
          endchar
        </CharString>
        <CharString name="dvK_MA">
          549 804 177 callsubr
          -354 rmoveto
          199 callgsubr
          -44 -80 callgsubr
          131 -60 callsubr
          75 hlineto
          -289 194 rmoveto
          289 -124 -253 283 callsubr
          647 205 rmoveto
          -986 -105 callgsubr
          330 358 callsubr
          68 hlineto
          195 callgsubr
          -156 vlineto
          346 callsubr
          88 244 callgsubr
        </CharString>
        <CharString name="dvK_NA">
          511 766 452 rmoveto
          -411 hlineto
          271 callgsubr
          333 callgsubr
          175 272 callgsubr
          334 244 rmoveto
          -948 -105 callgsubr
          350 1 callsubr
          24 vhcurveto
          68 hlineto
          195 callgsubr
          -200 vlineto
          -49 callsubr
          29 28 61 hvcurveto
          215 82 -382 -100 callsubr
        </CharString>
        <CharString name="dvK_NNA">
          521 600 178 rmoveto
          417 callgsubr
          378 90 vlineto
          -245 214 callsubr
          101 -104 vlineto
          518 174 rmoveto
          -958 -105 callgsubr
          350 1 callsubr
          24 vhcurveto
          69 -215 121 callsubr
          86 263 callgsubr
        </CharString>
        <CharString name="dvK_PA">
          353 614 20 callgsubr
          -259 214 callsubr
          106 -104 vlineto
          351 174 rmoveto
          -796 -105 callgsubr
          350 1 callsubr
          24 vhcurveto
          74 -215 202 callsubr
        </CharString>
        <CharString name="dvK_PHA">
          530 608 38 callsubr
          -253 214 callsubr
          100 -104 vlineto
          528 104 rmoveto
          70 -967 -70 249 -376 vlineto
          -107 callgsubr
          350 1 callsubr
          24 vhcurveto
          68 -215 hlineto
          -61 30 -28 60 vhcurveto
          63 hlineto
          17 11 3 8 8 hvcurveto
          -89 -99 callsubr
        </CharString>
        <CharString name="dvK_P_RA">
          353 609 208 80 callsubr
          350 99 vlineto
          -254 214 callsubr
          101 -104 vlineto
          351 174 rmoveto
          -791 -105 callgsubr
          350 1 callsubr
          24 vhcurveto
          69 -187 hlineto
          -61 30 -28 59 vhcurveto
          47 callsubr
        </CharString>
        <CharString name="dvK_R">
          49 494 438 callgsubr
          -514 -5 callgsubr
          350 126 callsubr
          143 70 -139 hlineto
          271 callgsubr
          vlineto
          endchar
        </CharString>
        <CharString name="dvK_RA">
          151 568 438 callgsubr
          -588 -5 callgsubr
          380 126 callsubr
          37 18 callgsubr
          -179 97 callgsubr
          202 243 callsubr
        </CharString>
</ttFont>
